ExploreSansVariable_ExtraThin Sans Italic.ufo
<glyph name="exclam" format="2">
  <advance width="234"/>
  <unicode hex="0021"/>
  <outline>
    <contour>
      <point x="176.839" y="716" type="line"/>
      <point x="211.839" y="716" type="line"/>
      <point x="95.9717" y="185" type="line"/>
      <point x="64.9717" y="185" type="line"/>
    </contour>
    <contour>
      <point x="56.0674" y="71.5996" type="curve" smooth="yes"/>
      <point x="80.9531" y="72"/>
      <point x="92.127" y="54"/>
      <point x="87.4502" y="32" type="curve" smooth="yes"/>
      <point x="82.9873" y="11"/>
      <point x="62.1611" y="-7"/>
      <point x="39.3604" y="-7" type="curve" smooth="yes"/>
      <point x="16.1611" y="-7"/>
      <point x="3.9873" y="11"/>
      <point x="8.4502" y="32" type="curve" smooth="yes"/>
      <point x="13.127" y="54"/>
      <point x="31.9531" y="72"/>
    </contour>
  </outline>
</glyph>
<glyph name="quotedbl" format="2">
  <advance width="270"/>
  <unicode hex="0022"/>
  <outline>
    <contour>
      <point x="82.7822" y="772" type="line"/>
      <point x="123.782" y="772" type="line"/>
      <point x="65.2178" y="520" type="line"/>
      <point x="34.2178" y="520" type="line"/>
    </contour>
    <contour>
      <point x="199.782" y="772" type="line"/>
      <point x="240.782" y="772" type="line"/>
      <point x="182.218" y="520" type="line"/>
      <point x="151.218" y="520" type="line"/>
    </contour>
  </outline>
</glyph>
<glyph name="numbersign" format="2">
  <advance width="609"/>
  <unicode hex="0023"/>
  <outline>
    <contour>
      <point x="380.146" y="724" type="line"/>
      <point x="413.346" y="724" type="line"/>
      <point x="293.271" y="495" type="line"/>
      <point x="453.271" y="495" type="line"/>
      <point x="574.146" y="724" type="line"/>
      <point x="607.346" y="724" type="line"/>
      <point x="487.271" y="495" type="line"/>
      <point x="574.271" y="495" type="line"/>
      <point x="568.318" y="467" type="line"/>
      <point x="473.318" y="467" type="line"/>
      <point x="363.895" y="258" type="line"/>
      <point x="523.895" y="258" type="line"/>
      <point x="517.942" y="230" type="line"/>
      <point x="348.942" y="230" type="line"/>
      <point x="228.654" y="0" type="line"/>
      <point x="195.454" y="0" type="line"/>
      <point x="315.942" y="230" type="line"/>
      <point x="154.942" y="230" type="line"/>
      <point x="34.6543" y="0" type="line"/>
      <point x="1.4541" y="0" type="line"/>
      <point x="121.942" y="230" type="line"/>
      <point x="33.9424" y="230" type="line"/>
      <point x="39.8945" y="258" type="line"/>
      <point x="136.895" y="258" type="line"/>
      <point x="246.318" y="467" type="line"/>
      <point x="84.3184" y="467" type="line"/>
      <point x="90.2705" y="495" type="line"/>
      <point x="259.271" y="495" type="line"/>
    </contour>
    <contour>
      <point x="330.895" y="258" type="line"/>
      <point x="440.318" y="467" type="line"/>
      <point x="279.318" y="467" type="line"/>
      <point x="169.895" y="258" type="line"/>
    </contour>
  </outline>
</glyph>
<glyph name="percent" format="2">
  <advance width="736"/>
  <unicode hex="0025"/>
  <outline>
    <contour>
      <point x="555" y="708" type="line"/>
      <point x="595" y="708" type="line"/>
      <point x="178" y="0" type="line"/>
      <point x="137" y="0" type="line"/>
    </contour>
    <contour>
      <point x="514" y="299" type="curve" smooth="yes"/>
      <point x="594" y="299"/>
      <point x="646" y="233"/>
      <point x="646" y="145" type="curve" smooth="yes"/>
      <point x="646" y="56"/>
      <point x="594" y="-8"/>
      <point x="514" y="-8" type="curve" smooth="yes"/>
      <point x="434" y="-8"/>
      <point x="384" y="56"/>
      <point x="384" y="145" type="curve" smooth="yes"/>
      <point x="384" y="233"/>
      <point x="434" y="299"/>
    </contour>
    <contour>
      <point x="514" y="271" type="curve" smooth="yes"/>
      <point x="453" y="271"/>
      <point x="416" y="219"/>
      <point x="416" y="145" type="curve" smooth="yes"/>
      <point x="416" y="64"/>
      <point x="453" y="20"/>
      <point x="514" y="20" type="curve" smooth="yes"/>
      <point x="574" y="20"/>
      <point x="614" y="64"/>
      <point x="614" y="145" type="curve" smooth="yes"/>
      <point x="614" y="219"/>
      <point x="574" y="271"/>
    </contour>
    <contour>
      <point x="221" y="688" type="curve" smooth="yes"/>
      <point x="161" y="688"/>
      <point x="122" y="633"/>
      <point x="122" y="564" type="curve" smooth="yes"/>
      <point x="122" y="494"/>
      <point x="161" y="437"/>
      <point x="221" y="437" type="curve" smooth="yes"/>
      <point x="282" y="437"/>
      <point x="321" y="494"/>
      <point x="321" y="564" type="curve" smooth="yes"/>
      <point x="321" y="633"/>
      <point x="282" y="688"/>
    </contour>
    <contour>
      <point x="221" y="716" type="curve" smooth="yes"/>
      <point x="301" y="716"/>
      <point x="353" y="651"/>
      <point x="353" y="564" type="curve" smooth="yes"/>
      <point x="353" y="475"/>
      <point x="303" y="409"/>
      <point x="221" y="409" type="curve" smooth="yes"/>
      <point x="139" y="409"/>
      <point x="90" y="476"/>
      <point x="90" y="564" type="curve" smooth="yes"/>
      <point x="90" y="651"/>
      <point x="142" y="716"/>
    </contour>
  </outline>
</glyph>
<glyph name="ampersand" format="2">
  <advance width="683"/>
  <unicode hex="0026"/>
  <outline>
    <contour>
      <point x="390.945" y="716" type="curve" smooth="yes"/>
      <point x="461.945" y="716"/>
      <point x="498.332" y="699"/>
      <point x="536.168" y="670" type="curve"/>
      <point x="514.066" y="646" type="line"/>
      <point x="487.743" y="668"/>
      <point x="447.994" y="688"/>
      <point x="383.994" y="688" type="curve" smooth="yes"/>
      <point x="290.994" y="688"/>
      <point x="225.391" y="624"/>
      <point x="212.212" y="562" type="curve" smooth="yes"/>
      <point x="200.096" y="505"/>
      <point x="206.869" y="471"/>
      <point x="235.879" y="424" type="curve"/>
      <point x="511.755" y="0" type="line"/>
      <point x="471.755" y="0" type="line"/>
      <point x="217.015" y="387" type="line"/>
      <point x="169.531" y="460"/>
      <point x="167.033" y="500"/>
      <point x="180.637" y="564" type="curve" smooth="yes"/>
      <point x="196.791" y="640"/>
      <point x="277.945" y="716"/>
    </contour>
    <contour>
      <point x="215.33" y="402.6" type="line"/>
      <point x="226.951" y="382" type="line"/>
      <point x="173.3" y="346" type="line" smooth="yes"/>
      <point x="92.8213" y="292"/>
      <point x="56.793" y="226"/>
      <point x="43.6143" y="164" type="curve" smooth="yes"/>
      <point x="25.5469" y="79"/>
      <point x="67.0059" y="20"/>
      <point x="182.006" y="20" type="curve" smooth="yes"/>
      <point x="268.006" y="20"/>
      <point x="350.445" y="55"/>
      <point x="395.639" y="150" type="curve"/>
      <point x="520.604" y="418" type="line"/>
      <point x="659.479" y="408" type="line"/>
      <point x="653.313" y="379" type="line"/>
      <point x="537.015" y="387" type="line"/>
      <point x="515.024" y="340"/>
      <point x="442.565" y="192"/>
      <point x="417.875" y="137" type="curve"/>
      <point x="366.919" y="29"/>
      <point x="269.454" y="-8"/>
      <point x="170.055" y="-8" type="curve" smooth="yes"/>
      <point x="42.6543" y="-8"/>
      <point x="-8.36621" y="70"/>
      <point x="12.252" y="167" type="curve" smooth="yes"/>
      <point x="29.8945" y="250"/>
      <point x="89.9229" y="316"/>
      <point x="159.126" y="364" type="curve" smooth="yes"/>
    </contour>
  </outline>
</glyph>
<glyph name="quotesingle" format="2">
  <advance width="142"/>
  <unicode hex="0027"/>
  <outline>
    <contour>
      <point x="89.0576" y="772" type="line"/>
      <point x="125.058" y="772" type="line"/>
      <point x="63.9424" y="508" type="line"/>
      <point x="37.9424" y="508" type="line"/>
    </contour>
  </outline>
</glyph>
<glyph name="parenleft" format="2">
  <advance width="238"/>
  <unicode hex="0028"/>
  <outline>
    <contour>
      <point x="280.824" y="800" type="curve"/>
      <point x="322.824" y="800" type="line"/>
      <point x="200.545" y="714"/>
      <point x="96.4102" y="544"/>
      <point x="58.5752" y="366" type="curve" smooth="yes"/>
      <point x="26.2666" y="214"/>
      <point x="53.3682" y="31"/>
      <point x="137.176" y="-64" type="curve"/>
      <point x="96.1758" y="-64" type="line"/>
      <point x="17.8809" y="24"/>
      <point x="-12.5352" y="182"/>
      <point x="26.5752" y="366" type="curve" smooth="yes"/>
      <point x="70.3613" y="572"/>
      <point x="166.545" y="714"/>
    </contour>
  </outline>
</glyph>
<glyph name="parenright" format="2">
  <advance width="240"/>
  <unicode hex="0029"/>
  <outline>
    <contour>
      <point x="98.8242" y="800" type="curve"/>
      <point x="140.824" y="800" type="line"/>
      <point x="218.545" y="714"/>
      <point x="254.361" y="572"/>
      <point x="210.575" y="366" type="curve" smooth="yes"/>
      <point x="171.465" y="182"/>
      <point x="73.8809" y="24"/>
      <point x="-42.8242" y="-64" type="curve"/>
      <point x="-82.8242" y="-64" type="line"/>
      <point x="41.3682" y="31"/>
      <point x="146.267" y="214"/>
      <point x="178.575" y="366" type="curve" smooth="yes"/>
      <point x="216.41" y="544"/>
      <point x="184.545" y="714"/>
    </contour>
  </outline>
</glyph>
<glyph name="asterisk" format="2">
  <advance width="467"/>
  <unicode hex="002A"/>
  <outline>
    <contour>
      <point x="217" y="806" type="line"/>
      <point x="250" y="806" type="line"/>
      <point x="250" y="692" type="line"/>
      <point x="245" y="634" type="line"/>
      <point x="298" y="661" type="line"/>
      <point x="404" y="698" type="line"/>
      <point x="415" y="669" type="line"/>
      <point x="321" y="635" type="line"/>
      <point x="250" y="615" type="line"/>
      <point x="286" y="575" type="line"/>
      <point x="358" y="476" type="line"/>
      <point x="333" y="458" type="line"/>
      <point x="263" y="558" type="line"/>
      <point x="233" y="601" type="line"/>
      <point x="205" y="558" type="line"/>
      <point x="134" y="458" type="line"/>
      <point x="109" y="476" type="line"/>
      <point x="179" y="575" type="line"/>
      <point x="218" y="615" type="line"/>
      <point x="147" y="635" type="line"/>
      <point x="52" y="669" type="line"/>
      <point x="62" y="698" type="line"/>
      <point x="167" y="661" type="line"/>
      <point x="223" y="634" type="line"/>
      <point x="217" y="692" type="line"/>
    </contour>
  </outline>
</glyph>
<glyph name="plus" format="2">
  <advance width="580"/>
  <unicode hex="002B"/>
  <outline>
    <contour>
      <point x="316.062" y="478" type="line"/>
      <point x="348.062" y="478" type="line"/>
      <point x="306.613" y="283" type="line"/>
      <point x="503.613" y="283" type="line"/>
      <point x="496.812" y="251" type="line"/>
      <point x="299.812" y="251" type="line"/>
      <point x="257.938" y="54" type="line"/>
      <point x="225.938" y="54" type="line"/>
      <point x="267.812" y="251" type="line"/>
      <point x="76.8115" y="251" type="line"/>
      <point x="83.6133" y="283" type="line"/>
      <point x="274.613" y="283" type="line"/>
    </contour>
  </outline>
</glyph>
<glyph name="comma" format="2">
  <advance width="100"/>
  <unicode hex="002C"/>
  <outline>
    <contour>
      <point x="50.5938" y="79" type="line"/>
      <point x="94.5938" y="79" type="line"/>
      <point x="30.4062" y="-143" type="line"/>
      <point x="3.40625" y="-143" type="line"/>
    </contour>
  </outline>
</glyph>
<glyph name="hyphen" format="2">
  <advance width="387"/>
  <unicode hex="002D"/>
  <outline>
    <contour>
      <point x="74.9756" y="280" type="line"/>
      <point x="317.976" y="280" type="line"/>
      <point x="312.024" y="252" type="line"/>
      <point x="69.0244" y="252" type="line"/>
    </contour>
  </outline>
</glyph>
<glyph name="slash" format="2">
  <advance width="346"/>
  <unicode hex="002F"/>
  <outline>
    <contour>
      <point x="423.269" y="772" type="line"/>
      <point x="457.269" y="772" type="line"/>
      <point x="-77.2686" y="-115" type="line"/>
      <point x="-111.269" y="-115" type="line"/>
    </contour>
  </outline>
</glyph>
<glyph name="zero" format="2">
  <advance width="550"/>
  <unicode hex="0030"/>
  <outline>
    <contour>
      <point x="274" y="688" type="curve" smooth="yes"/>
      <point x="166" y="688"/>
      <point x="96" y="590"/>
      <point x="96" y="358" type="curve" smooth="yes"/>
      <point x="96" y="125"/>
      <point x="166" y="21"/>
      <point x="273" y="21" type="curve" smooth="yes"/>
      <point x="382" y="21"/>
      <point x="454" y="126"/>
      <point x="454" y="360" type="curve" smooth="yes"/>
      <point x="454" y="589"/>
      <point x="382" y="688"/>
    </contour>
    <contour>
      <point x="274" y="716" type="curve" smooth="yes"/>
      <point x="416" y="716"/>
      <point x="486" y="603"/>
      <point x="486" y="360" type="curve" smooth="yes"/>
      <point x="486" y="114"/>
      <point x="418" y="-7"/>
      <point x="273" y="-7" type="curve" smooth="yes"/>
      <point x="138" y="-7"/>
      <point x="64" y="115"/>
      <point x="64" y="357" type="curve" smooth="yes"/>
      <point x="64" y="604"/>
      <point x="138" y="716"/>
    </contour>
  </outline>
</glyph>
<glyph name="one" format="2">
  <advance width="550"/>
  <unicode hex="0031"/>
  <outline>
    <contour>
      <point x="395" y="708" type="line"/>
      <point x="430" y="708" type="line"/>
      <point x="286" y="28" type="line"/>
      <point x="425" y="28" type="line"/>
      <point x="419" y="0" type="line"/>
      <point x="79" y="0" type="line"/>
      <point x="85" y="28" type="line"/>
      <point x="254" y="28" type="line"/>
      <point x="392" y="680" type="line"/>
      <point x="194" y="589" type="line"/>
      <point x="200" y="620" type="line"/>
    </contour>
  </outline>
</glyph>
<glyph name="two" format="2">
  <advance width="550"/>
  <unicode hex="0032"/>
  <outline>
    <contour>
      <point x="151" y="641" type="line"/>
      <point x="221" y="696"/>
      <point x="286" y="716"/>
      <point x="348" y="716" type="curve" smooth="yes"/>
      <point x="460" y="716"/>
      <point x="514" y="659"/>
      <point x="514" y="569" type="curve" smooth="yes"/>
      <point x="514" y="470"/>
      <point x="461" y="398"/>
      <point x="373" y="316" type="curve" smooth="yes"/>
      <point x="357" y="301"/>
      <point x="76" y="29"/>
      <point x="75" y="28" type="curve"/>
      <point x="416" y="28" type="line"/>
      <point x="411" y="0" type="line"/>
      <point x="31" y="0" type="line"/>
      <point x="37" y="28" type="line"/>
      <point x="314" y="297" type="line" smooth="yes"/>
      <point x="418" y="398"/>
      <point x="483" y="456"/>
      <point x="483" y="573" type="curve" smooth="yes"/>
      <point x="483" y="645"/>
      <point x="434" y="688"/>
      <point x="342" y="688" type="curve" smooth="yes"/>
      <point x="281" y="688"/>
      <point x="227" y="668"/>
      <point x="167" y="619" type="curve"/>
    </contour>
  </outline>
</glyph>
<glyph name="three" format="2">
  <advance width="550"/>
  <unicode hex="0033"/>
  <outline>
    <contour>
      <point x="177" y="708" type="line"/>
      <point x="544" y="708" type="line"/>
      <point x="538" y="680" type="line"/>
      <point x="289" y="425" type="line"/>
      <point x="411" y="424"/>
      <point x="481" y="370"/>
      <point x="481" y="254" type="curve" smooth="yes"/>
      <point x="481" y="70"/>
      <point x="335" y="-8"/>
      <point x="201" y="-8" type="curve" smooth="yes"/>
      <point x="79" y="-8"/>
      <point x="48" y="25"/>
      <point x="6" y="55" type="curve"/>
      <point x="23" y="83" type="line"/>
      <point x="71" y="44"/>
      <point x="119" y="20"/>
      <point x="206" y="20" type="curve" smooth="yes"/>
      <point x="321" y="20"/>
      <point x="450" y="92"/>
      <point x="450" y="259" type="curve" smooth="yes"/>
      <point x="450" y="339"/>
      <point x="402" y="397"/>
      <point x="258" y="397" type="curve" smooth="yes"/>
      <point x="251" y="397" type="line"/>
      <point x="254" y="426" type="line"/>
      <point x="500" y="680" type="line"/>
      <point x="171" y="680" type="line"/>
    </contour>
  </outline>
</glyph>
<glyph name="four" format="2">
  <advance width="550"/>
  <unicode hex="0034"/>
  <outline>
    <contour>
      <point x="418" y="708" type="line"/>
      <point x="453" y="708" type="line"/>
      <point x="85" y="213" type="line"/>
      <point x="380" y="214" type="line"/>
      <point x="438" y="484" type="line"/>
      <point x="470" y="484" type="line"/>
      <point x="412" y="214" type="line"/>
      <point x="500" y="214" type="line"/>
      <point x="494" y="186" type="line"/>
      <point x="406" y="186" type="line"/>
      <point x="367" y="0" type="line"/>
      <point x="335" y="0" type="line"/>
      <point x="374" y="186" type="line"/>
      <point x="46" y="186" type="line"/>
      <point x="49" y="213" type="line"/>
    </contour>
  </outline>
</glyph>
<glyph name="five" format="2">
  <advance width="550"/>
  <unicode hex="0035"/>
  <outline>
    <contour>
      <point x="191" y="708" type="line"/>
      <point x="532" y="708" type="line"/>
      <point x="526" y="680" type="line"/>
      <point x="214" y="680" type="line"/>
      <point x="146" y="381" type="line"/>
      <point x="168" y="400"/>
      <point x="229" y="435"/>
      <point x="299" y="435" type="curve" smooth="yes"/>
      <point x="407" y="435"/>
      <point x="470" y="374"/>
      <point x="470" y="267" type="curve"/>
      <point x="470" y="68"/>
      <point x="328" y="-8"/>
      <point x="200" y="-8" type="curve"/>
      <point x="114" y="-8"/>
      <point x="71" y="4"/>
      <point x="20" y="32" type="curve"/>
      <point x="34" y="62" type="line"/>
      <point x="92" y="31"/>
      <point x="141" y="20"/>
      <point x="206" y="20" type="curve" smooth="yes"/>
      <point x="313" y="20"/>
      <point x="437" y="92"/>
      <point x="437" y="262" type="curve" smooth="yes"/>
      <point x="437" y="353"/>
      <point x="390" y="407"/>
      <point x="288" y="407" type="curve" smooth="yes"/>
      <point x="224" y="407"/>
      <point x="177" y="384"/>
      <point x="133" y="348" type="curve"/>
      <point x="109" y="348" type="line"/>
    </contour>
  </outline>
</glyph>
<glyph name="six" format="2">
  <advance width="550"/>
  <unicode hex="0036"/>
  <outline>
    <contour>
      <point x="363" y="708" type="line"/>
      <point x="404" y="708" type="line"/>
      <point x="385" y="686"/>
      <point x="150" y="444"/>
      <point x="101" y="340" type="curve"/>
      <point x="132" y="387"/>
      <point x="206" y="439"/>
      <point x="313" y="439" type="curve" smooth="yes"/>
      <point x="403" y="439"/>
      <point x="477" y="384"/>
      <point x="477" y="271" type="curve" smooth="yes"/>
      <point x="477" y="77"/>
      <point x="343" y="-8"/>
      <point x="227" y="-8" type="curve" smooth="yes"/>
      <point x="105" y="-8"/>
      <point x="52" y="72"/>
      <point x="52" y="178" type="curve" smooth="yes"/>
      <point x="52" y="270"/>
      <point x="73" y="383"/>
      <point x="177" y="499" type="curve" smooth="yes"/>
    </contour>
    <contour>
      <point x="307" y="411" type="curve" smooth="yes"/>
      <point x="211" y="411"/>
      <point x="149" y="375"/>
      <point x="113" y="324" type="curve" smooth="yes"/>
      <point x="92" y="293"/>
      <point x="79" y="229"/>
      <point x="79" y="183" type="curve" smooth="yes"/>
      <point x="79" y="82"/>
      <point x="133" y="20"/>
      <point x="232" y="20" type="curve" smooth="yes"/>
      <point x="338" y="20"/>
      <point x="445" y="98"/>
      <point x="445" y="271" type="curve" smooth="yes"/>
      <point x="445" y="362"/>
      <point x="392" y="411"/>
    </contour>
  </outline>
</glyph>
<glyph name="seven" format="2">
  <advance width="550"/>
  <unicode hex="0037"/>
  <outline>
    <contour>
      <point x="125" y="708" type="line"/>
      <point x="539" y="708" type="line"/>
      <point x="533" y="680" type="line"/>
      <point x="99" y="0" type="line"/>
      <point x="65" y="0" type="line"/>
      <point x="498" y="680" type="line"/>
      <point x="119" y="680" type="line"/>
    </contour>
  </outline>
</glyph>
<glyph name="eight" format="2">
  <advance width="550"/>
  <unicode hex="0038"/>
  <outline>
    <contour>
      <point x="351.945" y="716" type="curve" smooth="yes"/>
      <point x="467.945" y="716"/>
      <point x="535.404" y="657"/>
      <point x="508.197" y="529" type="curve" smooth="yes"/>
      <point x="490.768" y="447"/>
      <point x="432.077" y="392"/>
      <point x="362.188" y="369" type="curve"/>
      <point x="415" y="354"/>
      <point x="473.672" y="296"/>
      <point x="451.354" y="191" type="curve" smooth="yes"/>
      <point x="423.083" y="58"/>
      <point x="333.055" y="-8"/>
      <point x="198.055" y="-8" type="curve" smooth="yes"/>
      <point x="70.0547" y="-8"/>
      <point x="1.08301" y="58"/>
      <point x="28.7158" y="188" type="curve" smooth="yes"/>
      <point x="51.459" y="295"/>
      <point x="132.725" y="348"/>
      <point x="192.188" y="369" type="curve"/>
      <point x="137.439" y="389"/>
      <point x="95.3672" y="431"/>
      <point x="116.197" y="529" type="curve" smooth="yes"/>
      <point x="143.83" y="659"/>
      <point x="235.945" y="716"/>
    </contour>
    <contour>
      <point x="345.994" y="688" type="curve" smooth="yes"/>
      <point x="241.994" y="688"/>
      <point x="169.878" y="631"/>
      <point x="147.772" y="527" type="curve" smooth="yes"/>
      <point x="128.643" y="437"/>
      <point x="179.589" y="385"/>
      <point x="281.589" y="385" type="curve" smooth="yes"/>
      <point x="386.589" y="385"/>
      <point x="456.43" y="436"/>
      <point x="475.772" y="527" type="curve" smooth="yes"/>
      <point x="498.091" y="632"/>
      <point x="452.994" y="688"/>
    </contour>
    <contour>
      <point x="275.638" y="357" type="curve" smooth="yes"/>
      <point x="164.638" y="357"/>
      <point x="80.6963" y="282"/>
      <point x="59.8652" y="184" type="curve" smooth="yes"/>
      <point x="39.46" y="88"/>
      <point x="92.0059" y="20"/>
      <point x="204.006" y="20" type="curve" smooth="yes"/>
      <point x="321.006" y="20"/>
      <point x="397.035" y="86"/>
      <point x="418.928" y="189" type="curve" smooth="yes"/>
      <point x="438.908" y="283"/>
      <point x="392.638" y="357"/>
    </contour>
  </outline>
</glyph>
<glyph name="nine" format="2">
  <advance width="550"/>
  <unicode hex="0039"/>
  <outline>
    <contour>
      <point x="320" y="716" type="curve" smooth="yes"/>
      <point x="442" y="716"/>
      <point x="496" y="636"/>
      <point x="496" y="530" type="curve" smooth="yes"/>
      <point x="496" y="438"/>
      <point x="475" y="331"/>
      <point x="348" y="191" type="curve" smooth="yes"/>
      <point x="175" y="0" type="line"/>
      <point x="134" y="0" type="line"/>
      <point x="153" y="22"/>
      <point x="391" y="260"/>
      <point x="440" y="364" type="curve"/>
      <point x="409" y="317"/>
      <point x="332" y="269"/>
      <point x="225" y="269" type="curve" smooth="yes"/>
      <point x="135" y="269"/>
      <point x="61" y="324"/>
      <point x="61" y="437" type="curve" smooth="yes"/>
      <point x="61" y="631"/>
      <point x="192" y="716"/>
    </contour>
    <contour>
      <point x="315" y="688" type="curve" smooth="yes"/>
      <point x="209" y="688"/>
      <point x="93" y="610"/>
      <point x="93" y="437" type="curve" smooth="yes"/>
      <point x="93" y="346"/>
      <point x="146" y="297"/>
      <point x="231" y="297" type="curve" smooth="yes"/>
      <point x="327" y="297"/>
      <point x="395" y="339"/>
      <point x="431" y="390" type="curve" smooth="yes"/>
      <point x="452" y="421"/>
      <point x="469" y="479"/>
      <point x="469" y="525" type="curve" smooth="yes"/>
      <point x="469" y="626"/>
      <point x="414" y="688"/>
    </contour>
  </outline>
</glyph>
<glyph name="colon" format="2">
  <advance width="228"/>
  <unicode hex="003A"/>
  <outline>
    <contour>
      <point x="158.965" y="528" type="curve" smooth="yes"/>
      <point x="181.965" y="528"/>
      <point x="195.564" y="512"/>
      <point x="190.463" y="488" type="curve" smooth="yes"/>
      <point x="185.361" y="464"/>
      <point x="165.173" y="449"/>
      <point x="142.173" y="449" type="curve" smooth="yes"/>
      <point x="119.173" y="449"/>
      <point x="106.361" y="464"/>
      <point x="111.463" y="488" type="curve" smooth="yes"/>
      <point x="116.564" y="512"/>
      <point x="135.965" y="528"/>
    </contour>
    <contour>
      <point x="61.8271" y="71" type="curve" smooth="yes"/>
      <point x="84.8271" y="71"/>
      <point x="98.4258" y="55"/>
      <point x="93.3242" y="31" type="curve" smooth="yes"/>
      <point x="88.2236" y="7"/>
      <point x="68.0352" y="-8"/>
      <point x="45.0352" y="-8" type="curve" smooth="yes"/>
      <point x="22.0352" y="-8"/>
      <point x="9.22363" y="7"/>
      <point x="14.3242" y="31" type="curve" smooth="yes"/>
      <point x="19.4258" y="55"/>
      <point x="38.8271" y="71"/>
    </contour>
  </outline>
</glyph>
<glyph name="less" format="2">
  <advance width="518"/>
  <unicode hex="003C"/>
  <outline>
    <contour>
      <point x="61.8193" y="329.4" type="line"/>
      <point x="514.379" y="501.4" type="line"/>
      <point x="526.824" y="466.8" type="line"/>
      <point x="34.4336" y="279.6" type="line"/>
      <point x="446.775" y="90.2002" type="line"/>
      <point x="419.621" y="55.5996" type="line"/>
      <point x="40.1807" y="227.6" type="line"/>
    </contour>
  </outline>
</glyph>
<glyph name="equal" format="2">
  <advance width="608"/>
  <unicode hex="003D"/>
  <outline>
    <contour>
      <point x="120.656" y="403" type="line"/>
      <point x="540.656" y="403" type="line"/>
      <point x="532.367" y="364" type="line"/>
      <point x="112.367" y="364" type="line"/>
    </contour>
    <contour>
      <point x="79.8457" y="211" type="line"/>
      <point x="499.846" y="211" type="line"/>
      <point x="491.556" y="172" type="line"/>
      <point x="71.3438" y="171" type="line"/>
    </contour>
  </outline>
</glyph>
<glyph name="greater" format="2">
  <advance width="492"/>
  <unicode hex="003E"/>
  <outline>
    <contour>
      <point x="97.9785" y="501.4" type="line"/>
      <point x="477.419" y="329.4" type="line"/>
      <point x="455.781" y="227.6" type="line"/>
      <point x="3.2207" y="55.5996" type="line"/>
      <point x="-9.22461" y="90.2002" type="line"/>
      <point x="483.634" y="279.6" type="line"/>
      <point x="70.8242" y="466.8" type="line"/>
    </contour>
  </outline>
</glyph>
<glyph name="question" format="2">
  <advance width="476"/>
  <unicode hex="003F"/>
  <outline>
    <contour>
      <point x="315.476" y="732" type="curve"/>
      <point x="410.476" y="732"/>
      <point x="495.123" y="688"/>
      <point x="471.317" y="576" type="curve" smooth="yes"/>
      <point x="453.25" y="491"/>
      <point x="392.472" y="445"/>
      <point x="325.694" y="399" type="curve"/>
      <point x="247.791" y="343"/>
      <point x="209.777" y="310"/>
      <point x="196.812" y="249" type="curve" smooth="yes"/>
      <point x="191.072" y="222"/>
      <point x="187.971" y="198"/>
      <point x="187.531" y="163" type="curve"/>
      <point x="157.256" y="157" type="line"/>
      <point x="154.569" y="182"/>
      <point x="156.521" y="210"/>
      <point x="164.386" y="247" type="curve" smooth="yes"/>
      <point x="180.753" y="324"/>
      <point x="238.53" y="370"/>
      <point x="311.583" y="422" type="curve"/>
      <point x="362.448" y="459"/>
      <point x="421.675" y="493"/>
      <point x="439.317" y="576" type="curve" smooth="yes"/>
      <point x="456.534" y="657"/>
      <point x="398.524" y="704"/>
      <point x="310.524" y="704" type="curve" smooth="yes"/>
      <point x="249.524" y="704"/>
      <point x="182.698" y="686"/>
      <point x="122.771" y="644" type="curve"/>
      <point x="113.8" y="668.6" type="line"/>
      <point x="177.782" y="711.8"/>
      <point x="244.476" y="732"/>
    </contour>
    <contour>
      <point x="159.559" y="72.7998" type="curve" smooth="yes"/>
      <point x="184.559" y="72.7998"/>
      <point x="195.308" y="52.7998"/>
      <point x="191.057" y="32.7998" type="curve" smooth="yes"/>
      <point x="186.593" y="11.7998"/>
      <point x="167.324" y="-6.40039"/>
      <point x="142.724" y="-6.40039" type="curve" smooth="yes"/>
      <point x="116.724" y="-6.40039"/>
      <point x="107.478" y="12.2002"/>
      <point x="111.856" y="32.7998" type="curve" smooth="yes"/>
      <point x="115.895" y="51.7998"/>
      <point x="132.559" y="72.7998"/>
    </contour>
  </outline>
</glyph>
<glyph name="at" format="2">
  <advance width="913"/>
  <unicode hex="0040"/>
  <outline>
    <contour>
      <point x="576.25" y="786" type="curve" smooth="yes"/>
      <point x="780.25" y="786"/>
      <point x="926.704" y="647"/>
      <point x="873.14" y="395" type="curve" smooth="yes"/>
      <point x="855.072" y="310"/>
      <point x="815.967" y="206"/>
      <point x="725.301" y="137" type="curve"/>
      <point x="693.6" y="129" type="line"/>
      <point x="604" y="219" type="line"/>
      <point x="575" y="165"/>
      <point x="524" y="124"/>
      <point x="426" y="124" type="curve" smooth="yes"/>
      <point x="334" y="124"/>
      <point x="266" y="184"/>
      <point x="266" y="312" type="curve" smooth="yes"/>
      <point x="266" y="479"/>
      <point x="374" y="581"/>
      <point x="488" y="581" type="curve" smooth="yes"/>
      <point x="561" y="581"/>
      <point x="614" y="533"/>
      <point x="626" y="511" type="curve"/>
      <point x="638" y="571" type="line"/>
      <point x="671" y="571" type="line"/>
      <point x="622" y="245" type="line"/>
      <point x="709.614" y="162" type="line"/>
      <point x="774.817" y="210"/>
      <point x="823.285" y="311"/>
      <point x="841.14" y="395" type="curve" smooth="yes"/>
      <point x="893.642" y="642"/>
      <point x="742.298" y="758"/>
      <point x="575.298" y="758" type="curve" smooth="yes"/>
      <point x="386.298" y="758"/>
      <point x="149.028" y="625"/>
      <point x="88.874" y="342" type="curve" smooth="yes"/>
      <point x="31.6963" y="73"/>
      <point x="185.915" y="-53"/>
      <point x="406.915" y="-53" type="curve" smooth="yes"/>
      <point x="471.915" y="-53"/>
      <point x="533.827" y="-44"/>
      <point x="596.079" y="-24" type="curve"/>
      <point x="590.127" y="-52" type="line"/>
      <point x="520.451" y="-74"/>
      <point x="437.75" y="-82"/>
      <point x="396.75" y="-82" type="curve" smooth="yes"/>
      <point x="212.75" y="-82"/>
      <point x="-12.8438" y="14"/>
      <point x="57.7246" y="346" type="curve" smooth="yes"/>
      <point x="120.004" y="639"/>
      <point x="374.25" y="786"/>
    </contour>
    <contour>
      <point x="486" y="548" type="curve" smooth="yes"/>
      <point x="382" y="548"/>
      <point x="298" y="445"/>
      <point x="298" y="317" type="curve" smooth="yes"/>
      <point x="298" y="207"/>
      <point x="342" y="152"/>
      <point x="435" y="152" type="curve" smooth="yes"/>
      <point x="523" y="152"/>
      <point x="585" y="208"/>
      <point x="596" y="288" type="curve" smooth="yes"/>
      <point x="620" y="469" type="line"/>
      <point x="594" y="513"/>
      <point x="549" y="548"/>
    </contour>
  </outline>
</glyph>
<glyph name="A" format="2">
  <advance width="557"/>
  <unicode hex="0041"/>
  <anchor x="432.018" y="881" name="AccentCenter"/>
  <outline>
    <contour>
      <point x="342.245" y="708" type="line"/>
      <point x="394.245" y="708" type="line"/>
      <point x="464.755" y="0" type="line"/>
      <point x="428.755" y="0" type="line"/>
      <point x="406.242" y="214" type="line"/>
      <point x="99.2422" y="214" type="line"/>
      <point x="-20.2451" y="0" type="line"/>
      <point x="-55.2451" y="0" type="line"/>
    </contour>
    <contour>
      <point x="352.868" y="678" type="line"/>
      <point x="117.193" y="242" type="line"/>
      <point x="404.193" y="242" type="line"/>
      <point x="369.868" y="678" type="line"/>
    </contour>
  </outline>
</glyph>
<glyph name="B" format="2">
  <advance width="594"/>
  <unicode hex="0042"/>
  <outline>
    <contour>
      <point x="176" y="708" type="line"/>
      <point x="400" y="708" type="line" smooth="yes"/>
      <point x="525" y="708"/>
      <point x="575" y="641"/>
      <point x="552" y="534" type="curve" smooth="yes"/>
      <point x="537" y="461"/>
      <point x="497" y="397"/>
      <point x="407" y="375" type="curve"/>
      <point x="498" y="361"/>
      <point x="534" y="293"/>
      <point x="515" y="202" type="curve" smooth="yes"/>
      <point x="489" y="79"/>
      <point x="393" y="0"/>
      <point x="266" y="0" type="curve" smooth="yes"/>
      <point x="26" y="0" type="line"/>
    </contour>
    <contour>
      <point x="202" y="680" type="line"/>
      <point x="140" y="387" type="line"/>
      <point x="361" y="387" type="line" smooth="yes"/>
      <point x="451" y="387"/>
      <point x="505" y="449"/>
      <point x="523" y="534" type="curve" smooth="yes"/>
      <point x="539" y="610"/>
      <point x="512" y="680"/>
      <point x="401" y="680" type="curve" smooth="yes"/>
    </contour>
    <contour>
      <point x="135" y="362" type="line"/>
      <point x="64" y="28" type="line"/>
      <point x="283" y="28" type="line" smooth="yes"/>
      <point x="387" y="28"/>
      <point x="462" y="104"/>
      <point x="483" y="202" type="curve" smooth="yes"/>
      <point x="502" y="294"/>
      <point x="459" y="362"/>
      <point x="350" y="362" type="curve" smooth="yes"/>
    </contour>
  </outline>
</glyph>
<glyph name="C" format="2">
  <advance width="591"/>
  <unicode hex="0043"/>
  <outline>
    <contour>
      <point x="430.945" y="716" type="curve" smooth="yes"/>
      <point x="505.945" y="716"/>
      <point x="560.719" y="682"/>
      <point x="604.366" y="638" type="curve"/>
      <point x="580.052" y="613" type="line"/>
      <point x="546.767" y="654"/>
      <point x="485.994" y="688"/>
      <point x="424.994" y="688" type="curve" smooth="yes"/>
      <point x="296.994" y="688"/>
      <point x="145.313" y="586"/>
      <point x="95.5752" y="352" type="curve" smooth="yes"/>
      <point x="52.6387" y="150"/>
      <point x="113.006" y="20"/>
      <point x="281.006" y="20" type="curve" smooth="yes"/>
      <point x="356.006" y="20"/>
      <point x="435.509" y="60"/>
      <point x="484.373" y="97" type="curve"/>
      <point x="496.484" y="74" type="line"/>
      <point x="442.045" y="39"/>
      <point x="370.055" y="-8"/>
      <point x="275.055" y="-8" type="curve" smooth="yes"/>
      <point x="93.0547" y="-8"/>
      <point x="15.3242" y="125"/>
      <point x="63.5752" y="352" type="curve" smooth="yes"/>
      <point x="117.989" y="608"/>
      <point x="282.945" y="716"/>
    </contour>
  </outline>
</glyph>
<glyph name="D" format="2">
  <advance width="605"/>
  <unicode hex="0044"/>
  <outline>
    <contour>
      <point x="186.293" y="680" type="line"/>
      <point x="47.707" y="28" type="line"/>
      <point x="182.707" y="28" type="line" smooth="yes"/>
      <point x="361.707" y="28"/>
      <point x="468.401" y="163"/>
      <point x="510.488" y="361" type="curve" smooth="yes"/>
      <point x="549.811" y="546"/>
      <point x="498.293" y="680"/>
      <point x="323.293" y="680" type="curve" smooth="yes"/>
    </contour>
    <contour>
      <point x="159.245" y="708" type="line"/>
      <point x="329.245" y="708" type="line" smooth="yes"/>
      <point x="512.245" y="708"/>
      <point x="590.101" y="585"/>
      <point x="542.488" y="361" type="curve" smooth="yes"/>
      <point x="492.112" y="124"/>
      <point x="363.755" y="0"/>
      <point x="174.755" y="0" type="curve" smooth="yes"/>
      <point x="8.75488" y="0" type="line"/>
    </contour>
  </outline>
</glyph>
<glyph name="E" format="2">
  <advance width="522"/>
  <unicode hex="0045"/>
  <anchor x="413.805" y="880" name="AccentCenter"/>
  <outline>
    <contour>
      <point x="179" y="708" type="line"/>
      <point x="561" y="708" type="line"/>
      <point x="555" y="680" type="line"/>
      <point x="205" y="680" type="line"/>
      <point x="142" y="381" type="line"/>
      <point x="414" y="381" type="line"/>
      <point x="408" y="353" type="line"/>
      <point x="136" y="353" type="line"/>
      <point x="67" y="28" type="line"/>
      <point x="417" y="28" type="line"/>
      <point x="411" y="0" type="line"/>
      <point x="29" y="0" type="line"/>
    </contour>
  </outline>
</glyph>
<glyph name="F" format="2">
  <advance width="532"/>
  <unicode hex="0046"/>
  <outline>
    <contour>
      <point x="159.245" y="708" type="line"/>
      <point x="575.245" y="708" type="line"/>
      <point x="569.293" y="680" type="line"/>
      <point x="185.293" y="680" type="line"/>
      <point x="123.652" y="390" type="line"/>
      <point x="429.652" y="390" type="line"/>
      <point x="423.7" y="362" type="line"/>
      <point x="117.7" y="362" type="line"/>
      <point x="40.7549" y="0" type="line"/>
      <point x="8.75488" y="0" type="line"/>
    </contour>
  </outline>
</glyph>
<glyph name="G" format="2">
  <advance width="620"/>
  <unicode hex="0047"/>
  <outline>
    <contour>
      <point x="422.945" y="716" type="curve" smooth="yes"/>
      <point x="511.945" y="716"/>
      <point x="569.781" y="687"/>
      <point x="611.642" y="644" type="curve"/>
      <point x="590.965" y="622" type="line"/>
      <point x="547.68" y="663"/>
      <point x="500.994" y="688"/>
      <point x="418.994" y="688" type="curve" smooth="yes"/>
      <point x="254.994" y="688"/>
      <point x="136.386" y="544"/>
      <point x="95.5752" y="352" type="curve" smooth="yes"/>
      <point x="69.8555" y="231"/>
      <point x="65.0059" y="20"/>
      <point x="284.006" y="20" type="curve" smooth="yes"/>
      <point x="324.006" y="20"/>
      <point x="388.919" y="29"/>
      <point x="444.32" y="45" type="curve"/>
      <point x="508.725" y="348" type="line"/>
      <point x="286.725" y="348" type="line"/>
      <point x="292.676" y="376" type="line"/>
      <point x="546.676" y="376" type="line"/>
      <point x="471.856" y="24" type="line"/>
      <point x="411.243" y="7"/>
      <point x="347.055" y="-8"/>
      <point x="278.055" y="-8" type="curve" smooth="yes"/>
      <point x="41.0547" y="-8"/>
      <point x="33.8174" y="212"/>
      <point x="63.5752" y="352" type="curve" smooth="yes"/>
      <point x="107.574" y="559"/>
      <point x="238.945" y="716"/>
    </contour>
  </outline>
</glyph>
<glyph name="H" format="2">
  <advance width="616"/>
  <unicode hex="0048"/>
  <outline>
    <contour>
      <point x="175.245" y="708" type="line"/>
      <point x="207.245" y="708" type="line"/>
      <point x="140.29" y="393" type="line"/>
      <point x="492.29" y="393" type="line"/>
      <point x="559.245" y="708" type="line"/>
      <point x="591.245" y="708" type="line"/>
      <point x="440.755" y="0" type="line"/>
      <point x="408.755" y="0" type="line"/>
      <point x="486.338" y="365" type="line"/>
      <point x="134.338" y="365" type="line"/>
      <point x="56.7549" y="0" type="line"/>
      <point x="24.7549" y="0" type="line"/>
    </contour>
  </outline>
</glyph>
<glyph name="I" format="2">
  <advance width="232"/>
  <unicode hex="0049"/>
  <anchor x="244.805" y="880" name="AccentCenter"/>
  <outline>
    <contour>
      <point x="175.245" y="708" type="line"/>
      <point x="207.245" y="708" type="line"/>
      <point x="56.7549" y="0" type="line"/>
      <point x="24.7549" y="0" type="line"/>
    </contour>
  </outline>
</glyph>
<glyph name="J" format="2">
  <advance width="349"/>
  <unicode hex="004A"/>
  <outline>
    <contour>
      <point x="321.912" y="708" type="line"/>
      <point x="353.776" y="708" type="line"/>
      <point x="239.119" y="168.579" type="line" smooth="yes"/>
      <point x="210.482" y="33.8545"/>
      <point x="144.58" y="-8"/>
      <point x="31.9238" y="-8" type="curve" smooth="yes"/>
      <point x="18.3232" y="-8"/>
      <point x="-4.20996" y="-6.4707"/>
      <point x="-33.876" y="0.09375" type="curve"/>
      <point x="-24.2656" y="26.8916" type="line"/>
      <point x="38.6035" y="23.4238" type="line" smooth="yes"/>
      <point x="126.638" y="18.5693"/>
      <point x="183.58" y="57.2002"/>
      <point x="207.345" y="169" type="curve" smooth="yes"/>
    </contour>
  </outline>
</glyph>
<glyph name="K" format="2">
  <advance width="530"/>
  <unicode hex="004B"/>
  <outline>
    <contour>
      <point x="176.075" y="708" type="line"/>
      <point x="207.923" y="708" type="line"/>
      <point x="136.939" y="373.134" type="line"/>
      <point x="161.039" y="373" type="line"/>
      <point x="533.245" y="708" type="line"/>
      <point x="572.845" y="708" type="line"/>
      <point x="182.535" y="358.4" type="line"/>
      <point x="422.755" y="0" type="line"/>
      <point x="383.755" y="0" type="line"/>
      <point x="154.874" y="344" type="line"/>
      <point x="130.527" y="343.881" type="line"/>
      <point x="57.4326" y="0" type="line"/>
      <point x="25.585" y="0" type="line"/>
    </contour>
  </outline>
</glyph>
<glyph name="L" format="2">
  <advance width="456"/>
  <unicode hex="004C"/>
  <outline>
    <contour>
      <point x="175.468" y="708" type="line"/>
      <point x="207.26" y="708" type="line"/>
      <point x="62.6436" y="27.6338" type="line"/>
      <point x="386.829" y="27.6338" type="line"/>
      <point x="380.955" y="0" type="line"/>
      <point x="24.9775" y="0" type="line"/>
    </contour>
  </outline>
</glyph>
<glyph name="M" format="2">
  <advance width="705"/>
  <unicode hex="004D"/>
  <outline>
    <contour>
      <point x="176.204" y="708" type="line"/>
      <point x="211.646" y="708" type="line"/>
      <point x="330.774" y="217.446" type="line"/>
      <point x="643.646" y="708" type="line"/>
      <point x="679.415" y="707.999" type="line"/>
      <point x="528.925" y="0" type="line"/>
      <point x="497.168" y="0" type="line"/>
      <point x="634.768" y="647.356" type="line"/>
      <point x="346.116" y="192.178" type="line"/>
      <point x="303.091" y="192.178" type="line"/>
      <point x="192.628" y="636.6" type="line"/>
      <point x="57.3145" y="0" type="line"/>
      <point x="25.7139" y="0" type="line"/>
    </contour>
  </outline>
</glyph>
<glyph name="N" format="2">
  <advance width="656"/>
  <unicode hex="004E"/>
  <outline>
    <contour>
      <point x="178.212" y="708" type="line"/>
      <point x="208.845" y="708" type="line"/>
      <point x="463.389" y="67.8223" type="line"/>
      <point x="599.463" y="708" type="line"/>
      <point x="631.1" y="708" type="line"/>
      <point x="480.61" y="0" type="line"/>
      <point x="450.354" y="0" type="line"/>
      <point x="196.525" y="645.559" type="line"/>
      <point x="59.3076" y="0" type="line"/>
      <point x="27.7217" y="0" type="line"/>
    </contour>
  </outline>
</glyph>
<glyph name="O" format="2">
  <advance width="652"/>
  <unicode hex="004F"/>
  <anchor x="439.954" y="876" name="AccentCenter"/>
  <outline>
    <contour>
      <point x="406.945" y="716" type="curve" smooth="yes"/>
      <point x="567.945" y="716"/>
      <point x="635.825" y="579"/>
      <point x="588" y="354" type="curve" smooth="yes"/>
      <point x="539.962" y="128"/>
      <point x="413.055" y="-8"/>
      <point x="253.055" y="-8" type="curve" smooth="yes"/>
      <point x="91.0547" y="-8"/>
      <point x="15.9619" y="128"/>
      <point x="64" y="354" type="curve" smooth="yes"/>
      <point x="111.825" y="579"/>
      <point x="244.945" y="716"/>
    </contour>
    <contour>
      <point x="400.994" y="688" type="curve" smooth="yes"/>
      <point x="253.994" y="688"/>
      <point x="138.086" y="552"/>
      <point x="96" y="354" type="curve" smooth="yes"/>
      <point x="53.7012" y="155"/>
      <point x="113.006" y="20"/>
      <point x="259.006" y="20" type="curve" smooth="yes"/>
      <point x="404.006" y="20"/>
      <point x="512.851" y="151"/>
      <point x="556" y="354" type="curve" smooth="yes"/>
      <point x="599.149" y="557"/>
      <point x="545.994" y="688"/>
    </contour>
  </outline>
</glyph>
<glyph name="P" format="2">
  <advance width="583"/>
  <unicode hex="0050"/>
  <outline>
    <contour>
      <point x="133" y="680" type="line"/>
      <point x="132.654" y="309.836" type="line"/>
      <point x="298.2" y="309.836" type="line" smooth="yes"/>
      <point x="403" y="310"/>
      <point x="489" y="360"/>
      <point x="489" y="505" type="curve" smooth="yes"/>
      <point x="489" y="626"/>
      <point x="400" y="680"/>
      <point x="315" y="680" type="curve" smooth="yes"/>
    </contour>
    <contour>
      <point x="101" y="708" type="line"/>
      <point x="315" y="708" type="line" smooth="yes"/>
      <point x="426" y="708"/>
      <point x="521" y="638"/>
      <point x="521" y="505" type="curve" smooth="yes"/>
      <point x="521" y="353"/>
      <point x="427" y="282"/>
      <point x="298" y="282" type="curve" smooth="yes"/>
      <point x="132.654" y="282.032" type="line"/>
      <point x="132.654" y="0" type="line"/>
      <point x="100.689" y="0" type="line"/>
    </contour>
  </outline>
</glyph>
<glyph name="Q" format="2">
  <advance width="652"/>
  <unicode hex="0051"/>
  <outline>
    <contour>
      <point x="421.699" y="688" type="curve" smooth="yes"/>
      <point x="275.699" y="688"/>
      <point x="158.491" y="560"/>
      <point x="114.918" y="355" type="curve" smooth="yes"/>
      <point x="69.8555" y="143"/>
      <point x="126.073" y="17"/>
      <point x="272.073" y="17" type="curve" smooth="yes"/>
      <point x="419.073" y="17"/>
      <point x="530.068" y="144"/>
      <point x="574.918" y="355" type="curve" smooth="yes"/>
      <point x="618.279" y="559"/>
      <point x="568.699" y="688"/>
    </contour>
    <contour>
      <point x="427.65" y="716" type="curve" smooth="yes"/>
      <point x="585.65" y="716"/>
      <point x="655.381" y="583"/>
      <point x="606.918" y="355" type="curve" smooth="yes"/>
      <point x="560.367" y="136"/>
      <point x="446.46" y="0"/>
      <point x="280.122" y="-11" type="curve"/>
      <point x="261.253" y="-128"/>
      <point x="321.938" y="-153"/>
      <point x="404.938" y="-153" type="curve" smooth="yes"/>
      <point x="465.938" y="-153" type="line"/>
      <point x="462.2" y="-180" type="line"/>
      <point x="445.774" y="-182"/>
      <point x="411.35" y="-184"/>
      <point x="383.35" y="-184" type="curve" smooth="yes"/>
      <point x="277.35" y="-184"/>
      <point x="231.253" y="-128"/>
      <point x="248.122" y="-11" type="curve"/>
      <point x="95.0352" y="-2"/>
      <point x="34.4551" y="127"/>
      <point x="82.918" y="355" type="curve" smooth="yes"/>
      <point x="131.381" y="583"/>
      <point x="263.65" y="716"/>
    </contour>
  </outline>
</glyph>
<glyph name="R" format="2">
  <advance width="586"/>
  <unicode hex="0052"/>
  <outline>
    <contour>
      <point x="175.245" y="708" type="line"/>
      <point x="388.659" y="708" type="line" smooth="yes"/>
      <point x="509.245" y="708"/>
      <point x="580.843" y="643"/>
      <point x="553.565" y="513.108" type="curve" smooth="yes"/>
      <point x="527.491" y="392"/>
      <point x="437.836" y="325"/>
      <point x="330.773" y="320" type="curve"/>
      <point x="452.169" y="0" type="line"/>
      <point x="412.169" y="0" type="line"/>
      <point x="292.561" y="319" type="line"/>
      <point x="124.873" y="319" type="line"/>
      <point x="57.0684" y="0" type="line"/>
      <point x="24.7549" y="0" type="line"/>
    </contour>
    <contour>
      <point x="130.825" y="347" type="line"/>
      <point x="318.512" y="347" type="line" smooth="yes"/>
      <point x="415.512" y="347"/>
      <point x="497.404" y="401"/>
      <point x="521.398" y="513.108" type="curve" smooth="yes"/>
      <point x="545.654" y="628"/>
      <point x="487.293" y="680"/>
      <point x="385.764" y="680.265" type="curve" smooth="yes"/>
      <point x="201.663" y="680.265" type="line"/>
    </contour>
  </outline>
</glyph>
<glyph name="S" format="2">
  <advance width="588"/>
  <unicode hex="0053"/>
  <outline>
    <contour>
      <point x="391.945" y="716" type="curve" smooth="yes"/>
      <point x="458.945" y="716"/>
      <point x="527.844" y="692"/>
      <point x="576.491" y="648" type="curve"/>
      <point x="555.815" y="626" type="line"/>
      <point x="500.168" y="670"/>
      <point x="444.994" y="688"/>
      <point x="382.994" y="688" type="curve" smooth="yes"/>
      <point x="269.994" y="688"/>
      <point x="181.028" y="627"/>
      <point x="162.11" y="538" type="curve" smooth="yes"/>
      <point x="147.869" y="471"/>
      <point x="157.028" y="420"/>
      <point x="261.227" y="388" type="curve" smooth="yes"/>
      <point x="367.425" y="356" type="line" smooth="yes"/>
      <point x="449.898" y="330"/>
      <point x="506.421" y="276"/>
      <point x="483.89" y="170" type="curve"/>
      <point x="460.721" y="61"/>
      <point x="359.055" y="-8"/>
      <point x="224.055" y="-8" type="curve" smooth="yes"/>
      <point x="125.055" y="-8"/>
      <point x="67.9434" y="15"/>
      <point x="-4.66602" y="78" type="curve"/>
      <point x="19.6484" y="103" type="line"/>
      <point x="71.7451" y="47"/>
      <point x="157.006" y="20"/>
      <point x="232.006" y="20" type="curve" smooth="yes"/>
      <point x="346.006" y="20"/>
      <point x="431.484" y="74"/>
      <point x="452.527" y="173" type="curve" smooth="yes"/>
      <point x="470.807" y="259"/>
      <point x="424.585" y="305"/>
      <point x="351.261" y="327" type="curve" smooth="yes"/>
      <point x="245.851" y="358" type="line" smooth="yes"/>
      <point x="138.652" y="390"/>
      <point x="112.894" y="457"/>
      <point x="129.897" y="537" type="curve" smooth="yes"/>
      <point x="152.004" y="641"/>
      <point x="254.945" y="716"/>
    </contour>
  </outline>
</glyph>
<glyph name="T" format="2">
  <advance width="567"/>
  <unicode hex="0054"/>
  <outline>
    <contour>
      <point x="131.045" y="708" type="line"/>
      <point x="585.445" y="708" type="line"/>
      <point x="579.582" y="680.418" type="line"/>
      <point x="371.473" y="680.418" type="line"/>
      <point x="226.845" y="0" type="line"/>
      <point x="194.665" y="0" type="line"/>
      <point x="339.292" y="680.418" type="line"/>
      <point x="125.183" y="680.418" type="line"/>
    </contour>
  </outline>
</glyph>
<glyph name="U" format="2">
  <advance width="631"/>
  <unicode hex="0055"/>
  <anchor x="391.455" y="880" name="AccentCenter"/>
  <outline>
    <contour>
      <point x="176.096" y="708" type="line"/>
      <point x="208.096" y="708" type="line"/>
      <point x="106.175" y="228.5" type="line" smooth="yes"/>
      <point x="73.0576" y="72.6963"/>
      <point x="143.423" y="19.8936"/>
      <point x="245.361" y="20" type="curve" smooth="yes"/>
      <point x="347.299" y="20.1064"/>
      <point x="440.058" y="72.6963"/>
      <point x="473.175" y="228.5" type="curve" smooth="yes"/>
      <point x="575.096" y="708" type="line"/>
      <point x="607.096" y="708" type="line"/>
      <point x="505.175" y="228.5" type="line" smooth="yes"/>
      <point x="471.494" y="70.0479"/>
      <point x="368.815" y="-8"/>
      <point x="239.41" y="-8" type="curve" smooth="yes"/>
      <point x="110.003" y="-8"/>
      <point x="40.0693" y="68.0479"/>
      <point x="74.1748" y="228.5" type="curve" smooth="yes"/>
    </contour>
  </outline>
</glyph>
<glyph name="V" format="2">
  <advance width="606"/>
  <unicode hex="0056"/>
  <outline>
    <contour>
      <point x="115.245" y="708" type="line"/>
      <point x="148.652" y="708" type="line"/>
      <point x="234.262" y="32.4951" type="line"/>
      <point x="608.329" y="708" type="line"/>
      <point x="642.245" y="708" type="line"/>
      <point x="250.755" y="0" type="line"/>
      <point x="204.755" y="0" type="line"/>
    </contour>
  </outline>
</glyph>
<glyph name="W" format="2">
  <advance width="770"/>
  <unicode hex="0057"/>
  <outline>
    <contour>
      <point x="115.245" y="708" type="line"/>
      <point x="150.245" y="708" type="line"/>
      <point x="157.344" y="31" type="line"/>
      <point x="451.245" y="708" type="line"/>
      <point x="477.245" y="708" type="line"/>
      <point x="476.344" y="31" type="line"/>
      <point x="770.245" y="708" type="line"/>
      <point x="805.245" y="708" type="line"/>
      <point x="489.755" y="0" type="line"/>
      <point x="446.755" y="0" type="line"/>
      <point x="447.24" y="628" type="line"/>
      <point x="176.755" y="0" type="line"/>
      <point x="129.755" y="0" type="line"/>
    </contour>
  </outline>
</glyph>
<glyph name="X" format="2">
  <advance width="564"/>
  <unicode hex="0058"/>
  <outline>
    <contour>
      <point x="115.245" y="708" type="line"/>
      <point x="157.245" y="708" type="line"/>
      <point x="288.739" y="381" type="line"/>
      <point x="559.245" y="708" type="line"/>
      <point x="599.245" y="708" type="line"/>
      <point x="302.425" y="356" type="line"/>
      <point x="448.755" y="0" type="line"/>
      <point x="408.755" y="0" type="line"/>
      <point x="278.324" y="332" type="line"/>
      <point x="6.75488" y="0" type="line"/>
      <point x="-35.2451" y="0" type="line"/>
      <point x="265.425" y="356" type="line"/>
    </contour>
  </outline>
</glyph>
<glyph name="Y" format="2">
  <advance width="581"/>
  <unicode hex="0059"/>
  <anchor x="394.604" y="880" name="AccentCenter"/>
  <outline>
    <contour>
      <point x="115.245" y="708" type="line"/>
      <point x="154.245" y="708" type="line"/>
      <point x="279.372" y="304" type="line"/>
      <point x="578.245" y="708" type="line"/>
      <point x="616.245" y="708" type="line"/>
      <point x="290.72" y="268" type="line"/>
      <point x="233.755" y="0" type="line"/>
      <point x="201.755" y="0" type="line"/>
      <point x="258.72" y="268" type="line"/>
    </contour>
  </outline>
</glyph>
<glyph name="Z" format="2">
  <advance width="582"/>
  <unicode hex="005A"/>
  <outline>
    <contour>
      <point x="152.245" y="708" type="line"/>
      <point x="583.245" y="708" type="line"/>
      <point x="577.293" y="680" type="line"/>
      <point x="32.707" y="28" type="line"/>
      <point x="435.707" y="28" type="line"/>
      <point x="429.755" y="0" type="line"/>
      <point x="-11.2451" y="0" type="line"/>
      <point x="-5.29297" y="28" type="line"/>
      <point x="539.293" y="680" type="line"/>
      <point x="146.293" y="680" type="line"/>
    </contour>
  </outline>
</glyph>
<glyph name="bracketleft" format="2">
  <advance width="309"/>
  <unicode hex="005B"/>
  <outline>
    <contour>
      <point x="157.844" y="819" type="line"/>
      <point x="338.844" y="819" type="line"/>
      <point x="332.893" y="791" type="line"/>
      <point x="183.893" y="791" type="line"/>
      <point x="8.10742" y="-36" type="line"/>
      <point x="157.107" y="-36" type="line"/>
      <point x="151.156" y="-64" type="line"/>
      <point x="-29.8438" y="-64" type="line"/>
    </contour>
  </outline>
</glyph>
<glyph name="backslash" format="2">
  <advance width="346"/>
  <unicode hex="005C"/>
  <outline>
    <contour>
      <point x="-17" y="772" type="line"/>
      <point x="17" y="772" type="line"/>
      <point x="363" y="-115" type="line"/>
      <point x="329" y="-115" type="line"/>
    </contour>
  </outline>
</glyph>
<glyph name="bracketright" format="2">
  <advance width="309"/>
  <unicode hex="005D"/>
  <outline>
    <contour>
      <point x="157.844" y="819" type="line"/>
      <point x="338.844" y="819" type="line"/>
      <point x="151.156" y="-64" type="line"/>
      <point x="-29.8438" y="-64" type="line"/>
      <point x="-23.8926" y="-36" type="line"/>
      <point x="125.107" y="-36" type="line"/>
      <point x="300.893" y="791" type="line"/>
      <point x="151.893" y="791" type="line"/>
    </contour>
  </outline>
</glyph>
<glyph name="asciicircum" format="2">
  <advance width="515"/>
  <unicode hex="005E"/>
  <outline>
    <contour>
      <point x="63.4639" y="717.6" type="line"/>
      <point x="226.231" y="852" type="line"/>
      <point x="294.432" y="852" type="line"/>
      <point x="400.063" y="717.6" type="line"/>
      <point x="344.169" y="665.4" type="line"/>
      <point x="246.463" y="784.4" type="line"/>
      <point x="98.1689" y="665.4" type="line"/>
    </contour>
  </outline>
</glyph>
<glyph name="underscore" format="2">
  <advance width="537"/>
  <unicode hex="005F"/>
  <outline>
    <contour>
      <point x="64" y="0" type="line"/>
      <point x="473" y="0" type="line"/>
      <point x="473" y="-28" type="line"/>
      <point x="64" y="-28" type="line"/>
    </contour>
  </outline>
</glyph>
<glyph name="grave" format="2">
  <advance width="248"/>
  <unicode hex="0060"/>
  <outline>
    <contour>
      <point x="91.208" y="901.047" type="line"/>
      <point x="213.693" y="745.879" type="line"/>
      <point x="180.488" y="720.565" type="line"/>
      <point x="58.3252" y="873.523" type="line"/>
    </contour>
  </outline>
</glyph>
<glyph name="a" format="2">
  <advance width="524"/>
  <unicode hex="0061"/>
  <guideline x="0" y="260" angle="0" name="ItalicCenter" identifier="fontra-guideline-0"/>
  <anchor x="371" y="687" name="AccentCenter"/>
  <anchor x="334" y="687" name="Ring"/>
  <outline>
    <contour>
      <point x="303" y="500" type="curve"/>
      <point x="188" y="500"/>
      <point x="81" y="366"/>
      <point x="81" y="175" type="curve" smooth="yes"/>
      <point x="81" y="81"/>
      <point x="129" y="20"/>
      <point x="219" y="20" type="curve"/>
      <point x="368" y="141" type="line"/>
      <point x="426" y="421" type="line"/>
      <point x="399" y="477"/>
      <point x="363" y="500"/>
    </contour>
    <contour>
      <point x="314" y="528" type="curve"/>
      <point x="354" y="528"/>
      <point x="410" y="507"/>
      <point x="432" y="455" type="curve"/>
      <point x="448" y="520" type="line"/>
      <point x="478" y="520" type="line"/>
      <point x="379" y="37" type="line"/>
      <point x="463" y="19" type="line"/>
      <point x="456" y="-8" type="line"/>
      <point x="345" y="14" type="line"/>
      <point x="364" y="103" type="line"/>
      <point x="224" y="-8" type="line"/>
      <point x="100" y="-8"/>
      <point x="49" y="71"/>
      <point x="49" y="175" type="curve" smooth="yes"/>
      <point x="49" y="390"/>
      <point x="169" y="528"/>
    </contour>
  </outline>
</glyph>
<glyph name="b" format="2">
  <advance width="543"/>
  <unicode hex="0062"/>
  <guideline x="0" y="260" angle="0" name="ItalicCenter" identifier="fontra-guideline-0"/>
  <outline>
    <contour>
      <point x="185" y="716" type="line"/>
      <point x="217" y="716" type="line"/>
      <point x="164" y="464" type="line"/>
      <point x="195" y="502"/>
      <point x="243" y="528"/>
      <point x="301" y="528" type="curve" smooth="yes"/>
      <point x="404" y="528"/>
      <point x="481" y="454"/>
      <point x="481" y="313" type="curve" smooth="yes"/>
      <point x="481" y="85"/>
      <point x="370" y="-8"/>
      <point x="233" y="-8" type="curve" smooth="yes"/>
      <point x="123" y="-8"/>
      <point x="80" y="49"/>
      <point x="54" y="99" type="curve"/>
    </contour>
    <contour>
      <point x="295" y="500" type="curve" smooth="yes"/>
      <point x="240" y="500"/>
      <point x="201" y="483"/>
      <point x="157" y="431" type="curve"/>
      <point x="87" y="105" type="line"/>
      <point x="113" y="57"/>
      <point x="151" y="20"/>
      <point x="232" y="20" type="curve" smooth="yes"/>
      <point x="369" y="20"/>
      <point x="449" y="116"/>
      <point x="449" y="311" type="curve" smooth="yes"/>
      <point x="449" y="434"/>
      <point x="386" y="500"/>
    </contour>
  </outline>
</glyph>
<glyph name="c" format="2">
  <advance width="484"/>
  <unicode hex="0063"/>
  <guideline x="0" y="260" angle="0" name="ItalicCenter" identifier="fontra-guideline-0"/>
  <outline>
    <contour>
      <point x="314" y="528" type="curve" smooth="yes"/>
      <point x="383" y="528"/>
      <point x="405" y="519"/>
      <point x="453" y="497" type="curve"/>
      <point x="442" y="470" type="line"/>
      <point x="400" y="490"/>
      <point x="372" y="500"/>
      <point x="310" y="500" type="curve" smooth="yes"/>
      <point x="192" y="500"/>
      <point x="84" y="409"/>
      <point x="84" y="194" type="curve" smooth="yes"/>
      <point x="84" y="112"/>
      <point x="117" y="20"/>
      <point x="237" y="20" type="curve" smooth="yes"/>
      <point x="297" y="20"/>
      <point x="348" y="40"/>
      <point x="400" y="65" type="curve"/>
      <point x="410" y="37" type="line"/>
      <point x="344" y="7"/>
      <point x="296" y="-8"/>
      <point x="230" y="-8" type="curve" smooth="yes"/>
      <point x="92" y="-8"/>
      <point x="52" y="103"/>
      <point x="52" y="194" type="curve" smooth="yes"/>
      <point x="52" y="425"/>
      <point x="174" y="528"/>
    </contour>
  </outline>
</glyph>
<glyph name="d" format="2">
  <advance width="507"/>
  <unicode hex="0064"/>
  <outline>
    <contour>
      <point x="502" y="724" type="line"/>
      <point x="534" y="724" type="line"/>
      <point x="402" y="103" type="line"/>
      <point x="430" y="0" type="line"/>
      <point x="397" y="0" type="line"/>
      <point x="374" y="96" type="line"/>
      <point x="351" y="47"/>
      <point x="285" y="-8"/>
      <point x="204" y="-8" type="curve" smooth="yes"/>
      <point x="101" y="-8"/>
      <point x="60" y="74"/>
      <point x="60" y="192" type="curve" smooth="yes"/>
      <point x="60" y="406"/>
      <point x="160" y="531"/>
      <point x="317" y="531" type="curve" smooth="yes"/>
      <point x="385" y="531"/>
      <point x="416" y="505"/>
      <point x="449" y="477" type="curve"/>
    </contour>
    <contour>
      <point x="310" y="503" type="curve" smooth="yes"/>
      <point x="170" y="503"/>
      <point x="91" y="370"/>
      <point x="91" y="189" type="curve" smooth="yes"/>
      <point x="91" y="92"/>
      <point x="116" y="20"/>
      <point x="218" y="20" type="curve" smooth="yes"/>
      <point x="296" y="20"/>
      <point x="344" y="87"/>
      <point x="379" y="147" type="curve"/>
      <point x="443" y="447" type="line"/>
      <point x="419" y="469"/>
      <point x="384" y="503"/>
    </contour>
  </outline>
</glyph>
<glyph name="e" format="2">
  <advance width="538"/>
  <unicode hex="0065"/>
  <guideline x="0" y="260" angle="0" name="ItalicCenter" identifier="fontra-guideline-0"/>
  <anchor x="364.762" y="687" name="AccentCenter"/>
  <outline>
    <contour>
      <point x="305" y="528" type="curve" smooth="yes"/>
      <point x="394" y="528"/>
      <point x="473" y="472"/>
      <point x="473" y="334" type="curve" smooth="yes"/>
      <point x="473" y="319"/>
      <point x="471" y="301"/>
      <point x="469" y="290" type="curve"/>
      <point x="96" y="220" type="line"/>
      <point x="96" y="104"/>
      <point x="153" y="20"/>
      <point x="277" y="20" type="curve" smooth="yes"/>
      <point x="316" y="20"/>
      <point x="361" y="28"/>
      <point x="412" y="52" type="curve"/>
      <point x="411" y="18" type="line"/>
      <point x="365" y="0"/>
      <point x="333" y="-8"/>
      <point x="269" y="-8" type="curve" smooth="yes"/>
      <point x="133" y="-8"/>
      <point x="64" y="78"/>
      <point x="64" y="239" type="curve" smooth="yes"/>
      <point x="64" y="430"/>
      <point x="181" y="528"/>
    </contour>
    <contour>
      <point x="301" y="500" type="curve" smooth="yes"/>
      <point x="199" y="500"/>
      <point x="96" y="411"/>
      <point x="96" y="249" type="curve"/>
      <point x="441" y="315" type="line"/>
      <point x="441" y="348" type="line" smooth="yes"/>
      <point x="441" y="450"/>
      <point x="381" y="500"/>
    </contour>
  </outline>
</glyph>
<glyph name="f" format="2">
  <advance width="339"/>
  <unicode hex="0066"/>
  <guideline x="0" y="260" angle="0" name="ItalicCenter" identifier="fontra-guideline-0"/>
  <outline>
    <contour>
      <point x="325" y="732" type="curve" smooth="yes"/>
      <point x="353" y="732"/>
      <point x="379" y="727"/>
      <point x="401" y="722" type="curve"/>
      <point x="390" y="697" type="line"/>
      <point x="332" y="703" type="line" smooth="yes"/>
      <point x="270" y="709"/>
      <point x="223" y="669"/>
      <point x="210" y="605" type="curve" smooth="yes"/>
      <point x="192" y="520" type="line"/>
      <point x="344" y="520" type="line"/>
      <point x="338" y="492" type="line"/>
      <point x="186" y="492" type="line"/>
      <point x="79" y="-14" type="line"/>
      <point x="-71" y="-218" type="line"/>
      <point x="-96" y="-199" type="line"/>
      <point x="49" y="-3" type="line"/>
      <point x="154" y="492" type="line"/>
      <point x="36" y="492" type="line"/>
      <point x="42" y="520" type="line"/>
      <point x="160" y="520" type="line"/>
      <point x="178" y="605" type="line" smooth="yes"/>
      <point x="189" y="658"/>
      <point x="230" y="732"/>
    </contour>
  </outline>
</glyph>
<glyph name="g" format="2">
  <advance width="535"/>
  <unicode hex="0067"/>
  <outline>
    <contour>
      <point x="316.521" y="528" type="curve" smooth="yes"/>
      <point x="350.521" y="528"/>
      <point x="383.183" y="517"/>
      <point x="401.844" y="506" type="curve"/>
      <point x="535.82" y="520" type="line"/>
      <point x="557.82" y="520" type="line"/>
      <point x="550.593" y="486" type="line"/>
      <point x="427.593" y="486" type="line"/>
      <point x="453.066" y="460"/>
      <point x="467.564" y="420"/>
      <point x="454.811" y="360" type="curve" smooth="yes"/>
      <point x="436.318" y="273"/>
      <point x="352.227" y="202"/>
      <point x="247.227" y="202" type="curve" smooth="yes"/>
      <point x="211.227" y="202"/>
      <point x="180.14" y="211"/>
      <point x="180.14" y="211" type="curve"/>
      <point x="91.459" y="109" type="line"/>
      <point x="340.232" y="75" type="line" smooth="yes"/>
      <point x="404.319" y="66"/>
      <point x="461.729" y="35"/>
      <point x="444.726" y="-45" type="curve" smooth="yes"/>
      <point x="425.383" y="-136"/>
      <point x="336.479" y="-192"/>
      <point x="198.479" y="-192" type="curve" smooth="yes"/>
      <point x="91.4795" y="-192"/>
      <point x="30.1318" y="-156"/>
      <point x="-13.2158" y="-120" type="curve"/>
      <point x="-7.47754" y="-93" type="line"/>
      <point x="145.382" y="71" type="line"/>
      <point x="53.1455" y="84" type="line"/>
      <point x="61.1592" y="117" type="line"/>
      <point x="152.479" y="222" type="line"/>
      <point x="113.28" y="254"/>
      <point x="91.3574" y="292"/>
      <point x="105.811" y="360" type="curve" smooth="yes"/>
      <point x="125.579" y="453"/>
      <point x="208.521" y="528"/>
    </contour>
    <contour>
      <point x="179.106" y="65" type="line"/>
      <point x="18.3975" y="-103" type="line"/>
      <point x="48.4453" y="-131"/>
      <point x="118.432" y="-164"/>
      <point x="201.432" y="-164" type="curve" smooth="yes"/>
      <point x="320.432" y="-164"/>
      <point x="395.934" y="-124"/>
      <point x="412.301" y="-47" type="curve" smooth="yes"/>
      <point x="425.479" y="15"/>
      <point x="382.367" y="38"/>
      <point x="331.855" y="45" type="curve" smooth="yes"/>
    </contour>
    <contour>
      <point x="310.568" y="500" type="curve" smooth="yes"/>
      <point x="216.568" y="500"/>
      <point x="154.391" y="438"/>
      <point x="137.811" y="360" type="curve" smooth="yes"/>
      <point x="121.869" y="285"/>
      <point x="154.753" y="228"/>
      <point x="252.753" y="228" type="curve" smooth="yes"/>
      <point x="329.753" y="228"/>
      <point x="405.807" y="280"/>
      <point x="422.811" y="360" type="curve" smooth="yes"/>
      <point x="442.153" y="451"/>
      <point x="388.568" y="500"/>
    </contour>
  </outline>
</glyph>
<glyph name="h" format="2">
  <advance width="540"/>
  <unicode hex="0068"/>
  <guideline x="0" y="260" angle="0" name="ItalicCenter" identifier="fontra-guideline-0"/>
  <outline>
    <contour>
      <point x="195.0642" y="706" type="line"/>
      <point x="227.0642" y="706" type="line"/>
      <point x="150.0322" y="347" type="line"/>
      <point x="203" y="485"/>
      <point x="273" y="528"/>
      <point x="352" y="528" type="curve" smooth="yes"/>
      <point x="424" y="528"/>
      <point x="466" y="480"/>
      <point x="466" y="392" type="curve" smooth="yes"/>
      <point x="466" y="371"/>
      <point x="464" y="346"/>
      <point x="459" y="324" type="curve" smooth="yes"/>
      <point x="390" y="0" type="line"/>
      <point x="359" y="0" type="line"/>
      <point x="429" y="329" type="line" smooth="yes"/>
      <point x="433" y="347"/>
      <point x="435" y="368"/>
      <point x="435" y="392" type="curve" smooth="yes"/>
      <point x="435" y="461"/>
      <point x="404" y="500"/>
      <point x="344" y="500" type="curve" smooth="yes"/>
      <point x="259" y="500"/>
      <point x="195" y="421"/>
      <point x="132" y="260" type="curve"/>
      <point x="77" y="0" type="line"/>
      <point x="45" y="0" type="line"/>
    </contour>
  </outline>
</glyph>
<glyph name="i" format="2">
  <advance width="286"/>
  <unicode hex="0069"/>
  <outline>
    <contour>
      <point x="222.519" y="731.063" type="curve" smooth="yes"/>
      <point x="244.453" y="731.063"/>
      <point x="257.504" y="713.885"/>
      <point x="252.942" y="692.426" type="curve" smooth="yes"/>
      <point x="248.246" y="670.333"/>
      <point x="228.028" y="653.789"/>
      <point x="206.093" y="653.789" type="curve" smooth="yes"/>
      <point x="184.159" y="653.789"/>
      <point x="170.974" y="670.333"/>
      <point x="175.67" y="692.426" type="curve" smooth="yes"/>
      <point x="180.23" y="713.885"/>
      <point x="200.584" y="731.063"/>
    </contour>
    <component base="dotlessi" yxScale="0.212557" xOffset="-81.2961"/>
  </outline>
</glyph>
<glyph name="j" format="2">
  <advance width="274.0161597419689"/>
  <unicode hex="006A"/>
  <guideline x="0" y="260" angle="0" name="ItalicCenter" identifier="fontra-guideline-0"/>
  <outline>
    <contour>
      <point x="171.3403" y="521" type="line"/>
      <point x="203.3403" y="521" type="line"/>
      <point x="78.3565" y="-67" type="line"/>
      <point x="63.477599999999995" y="-137"/>
      <point x="6.354509999999995" y="-191"/>
      <point x="-82" y="-191" type="curve" smooth="yes"/>
      <point x="-84" y="-191" type="line"/>
      <point x="-78.0488" y="-163" type="line"/>
      <point x="-76.0488" y="-163" type="line" smooth="yes"/>
      <point x="-5.048810000000005" y="-163"/>
      <point x="33.419" y="-127.869"/>
      <point x="45.088899999999995" y="-72.9639" type="curve" smooth="yes"/>
    </contour>
    <contour>
      <point x="228.97629999999998" y="731" type="curve" smooth="yes"/>
      <point x="248.97629999999998" y="731"/>
      <point x="265.00129999999996" y="717"/>
      <point x="259.6873" y="692" type="curve" smooth="yes"/>
      <point x="253.94830000000002" y="665"/>
      <point x="232.39729999999997" y="653"/>
      <point x="212.39729999999997" y="653" type="curve" smooth="yes"/>
      <point x="192.39729999999997" y="653"/>
      <point x="177.16129999999998" y="666"/>
      <point x="182.6873" y="692" type="curve" smooth="yes"/>
      <point x="188.00130000000001" y="717"/>
      <point x="208.97629999999998" y="731"/>
    </contour>
  </outline>
</glyph>
<glyph name="k" format="2">
  <advance width="474"/>
  <unicode hex="006B"/>
  <guideline x="0" y="260" angle="0" name="ItalicCenter" identifier="fontra-guideline-0"/>
  <outline>
    <contour>
      <point x="59.7549" y="0" type="line"/>
      <point x="27.7549" y="0" type="line"/>
      <point x="178.245" y="708" type="line"/>
      <point x="210.245" y="708" type="line"/>
    </contour>
    <contour>
      <point x="213" y="262" type="line"/>
      <point x="384" y="356" type="line"/>
      <point x="398" y="378"/>
      <point x="406" y="398"/>
      <point x="406" y="429" type="curve" smooth="yes"/>
      <point x="406" y="489"/>
      <point x="367" y="502"/>
      <point x="326" y="502" type="curve" smooth="yes"/>
      <point x="230" y="502"/>
      <point x="160" y="372"/>
      <point x="114" y="261" type="curve"/>
      <point x="94" y="271" type="line"/>
      <point x="145" y="399"/>
      <point x="218" y="528"/>
      <point x="330" y="528" type="curve" smooth="yes"/>
      <point x="392" y="528"/>
      <point x="434" y="494"/>
      <point x="434" y="434" type="curve" smooth="yes"/>
      <point x="434" y="395"/>
      <point x="421" y="365"/>
      <point x="405" y="339" type="curve"/>
      <point x="248" y="254" type="line"/>
      <point x="388" y="0" type="line"/>
      <point x="356" y="0" type="line"/>
    </contour>
  </outline>
</glyph>
<glyph name="l" format="2">
  <advance width="259.98673699589773"/>
  <unicode hex="006C"/>
  <guideline x="0" y="260" angle="0" name="ItalicCenter" identifier="fontra-guideline-0"/>
  <outline>
    <contour>
      <point x="212.88673699589773" y="791" type="line"/>
      <point x="244.88673699589773" y="791" type="line"/>
      <point x="87.58403699589773" y="50.0195" type="line" smooth="yes"/>
      <point x="83.66413699589772" y="31.5566"/>
      <point x="98.18753699589773" y="23.043"/>
      <point x="117.28813699589773" y="23" type="curve" smooth="yes"/>
      <point x="125.28423699589773" y="22.9824"/>
      <point x="133.9827369958977" y="24.1221"/>
      <point x="147.25473699589773" y="26.0947" type="curve"/>
      <point x="180.34373699589773" y="31" type="line"/>
      <point x="179.81773699589775" y="5" type="line"/>
      <point x="162.54173699589774" y="-1"/>
      <point x="122.21783699589773" y="-8"/>
      <point x="101.05473699589773" y="-8" type="curve" smooth="yes"/>
      <point x="58.05473699589773" y="-8"/>
      <point x="48.057636995897724" y="15.5391"/>
      <point x="55.59473699589772" y="51" type="curve" smooth="yes"/>
    </contour>
  </outline>
</glyph>
<glyph name="m" format="2">
  <advance width="756"/>
  <unicode hex="006D"/>
  <guideline x="0" y="260" angle="0" name="ItalicCenter" identifier="fontra-guideline-0"/>
  <outline>
    <contour>
      <point x="135" y="520" type="line"/>
      <point x="163" y="520" type="line"/>
      <point x="131" y="335" type="line"/>
      <point x="185" y="484"/>
      <point x="258" y="528"/>
      <point x="326" y="528" type="curve" smooth="yes"/>
      <point x="377" y="528"/>
      <point x="418" y="505"/>
      <point x="418" y="430" type="curve" smooth="yes"/>
      <point x="418" y="386"/>
      <point x="405" y="350"/>
      <point x="399" y="331" type="curve"/>
      <point x="466" y="480"/>
      <point x="532" y="528"/>
      <point x="608" y="528" type="curve" smooth="yes"/>
      <point x="666" y="528"/>
      <point x="716" y="504"/>
      <point x="716" y="430" type="curve" smooth="yes"/>
      <point x="716" y="416"/>
      <point x="714" y="400"/>
      <point x="710" y="382" type="curve" smooth="yes"/>
      <point x="629" y="0" type="line"/>
      <point x="597" y="0" type="line"/>
      <point x="678" y="381" type="line" smooth="yes"/>
      <point x="681" y="397"/>
      <point x="683" y="411"/>
      <point x="683" y="424" type="curve" smooth="yes"/>
      <point x="682" y="479"/>
      <point x="648" y="500"/>
      <point x="604" y="500" type="curve" smooth="yes"/>
      <point x="509" y="500"/>
      <point x="468" y="417"/>
      <point x="395" y="289" type="curve"/>
      <point x="334" y="0" type="line"/>
      <point x="302" y="0" type="line"/>
      <point x="381" y="376" type="line" smooth="yes"/>
      <point x="385" y="395"/>
      <point x="388" y="412"/>
      <point x="388" y="430" type="curve" smooth="yes"/>
      <point x="388" y="480"/>
      <point x="358" y="500"/>
      <point x="317" y="500" type="curve" smooth="yes"/>
      <point x="254" y="500"/>
      <point x="196" y="441"/>
      <point x="121" y="288" type="curve"/>
      <point x="57" y="0" type="line"/>
      <point x="25" y="0" type="line"/>
    </contour>
  </outline>
</glyph>
<glyph name="n" format="2">
  <advance width="527"/>
  <unicode hex="006E"/>
  <guideline x="0" y="260" angle="0" name="ItalicCenter" identifier="fontra-guideline-0"/>
  <anchor x="364.312" y="687" name="AccentCenter"/>
  <outline>
    <contour>
      <point x="146" y="520" type="line"/>
      <point x="167" y="520" type="line"/>
      <point x="141" y="352" type="line"/>
      <point x="186" y="476"/>
      <point x="260" y="528"/>
      <point x="348" y="528" type="curve" smooth="yes"/>
      <point x="413" y="528"/>
      <point x="457" y="490"/>
      <point x="457" y="410" type="curve" smooth="yes"/>
      <point x="457" y="395"/>
      <point x="455" y="373"/>
      <point x="450" y="352" type="curve" smooth="yes"/>
      <point x="376" y="0" type="line"/>
      <point x="344" y="0" type="line"/>
      <point x="419" y="352" type="line" smooth="yes"/>
      <point x="423" y="372"/>
      <point x="424" y="393"/>
      <point x="424" y="407" type="curve" smooth="yes"/>
      <point x="424" y="468"/>
      <point x="398" y="500"/>
      <point x="342" y="500" type="curve" smooth="yes"/>
      <point x="240" y="500"/>
      <point x="180" y="397"/>
      <point x="129" y="282" type="curve"/>
      <point x="68" y="0" type="line"/>
      <point x="36" y="0" type="line"/>
    </contour>
  </outline>
</glyph>
<glyph name="o" format="2">
  <advance width="550"/>
  <unicode hex="006F"/>
  <guideline x="0" y="260" angle="0" name="ItalicCenter" identifier="fontra-guideline-0"/>
  <anchor x="367.762" y="687" name="AccentCenter"/>
  <outline>
    <contour>
      <point x="325.014" y="500" type="curve" smooth="yes"/>
      <point x="225.014" y="500"/>
      <point x="132.772" y="433"/>
      <point x="95.3623" y="257" type="curve" smooth="yes"/>
      <point x="58.3779" y="83"/>
      <point x="120.986" y="20"/>
      <point x="220.986" y="20" type="curve" smooth="yes"/>
      <point x="321.986" y="20"/>
      <point x="416.803" y="85"/>
      <point x="454" y="260" type="curve" smooth="yes"/>
      <point x="491.197" y="435"/>
      <point x="424.014" y="500"/>
    </contour>
    <contour>
      <point x="330.965" y="528" type="curve" smooth="yes"/>
      <point x="475.965" y="528"/>
      <point x="521.072" y="425"/>
      <point x="485.362" y="257" type="curve" smooth="yes"/>
      <point x="451.565" y="98"/>
      <point x="356.035" y="-8"/>
      <point x="215.035" y="-8" type="curve" smooth="yes"/>
      <point x="74.0352" y="-8"/>
      <point x="29.1406" y="96"/>
      <point x="63.7871" y="259" type="curve" smooth="yes"/>
      <point x="99.2842" y="426"/>
      <point x="185.965" y="528"/>
    </contour>
  </outline>
</glyph>
<glyph name="p" format="2">
  <advance width="578.0134705454045"/>
  <unicode hex="0070"/>
  <guideline x="0" y="260" angle="0" name="ItalicCenter" identifier="fontra-guideline-0"/>
  <outline>
    <contour>
      <point x="347.7685" y="500.217" type="curve" smooth="yes"/>
      <point x="266.6245" y="500.217"/>
      <point x="198.9715" y="441.934"/>
      <point x="162.0205" y="397.6" type="curve"/>
      <point x="104.4095" y="126.579" type="line"/>
      <point x="131.3285" y="56.4805"/>
      <point x="165.5625" y="20"/>
      <point x="249.5625" y="20" type="curve" smooth="yes"/>
      <point x="360.5625" y="20"/>
      <point x="451.13750000000005" y="117.79"/>
      <point x="482.3855" y="264.8" type="curve" smooth="yes"/>
      <point x="515.6145" y="421.128"/>
      <point x="458.25250000000005" y="500.217"/>
    </contour>
    <contour>
      <point x="155.8405" y="520" type="line"/>
      <point x="179.0875" y="520" type="line"/>
      <point x="170.2355" y="436.247" type="line"/>
      <point x="223.2295" y="491.69"/>
      <point x="277.40250000000003" y="528"/>
      <point x="364.47349999999994" y="528" type="curve" smooth="yes"/>
      <point x="490.3665" y="528"/>
      <point x="551.1985" y="437"/>
      <point x="513.7885" y="261" type="curve" smooth="yes"/>
      <point x="479.14149999999995" y="98"/>
      <point x="367.59450000000004" y="-8"/>
      <point x="246.6105" y="-8" type="curve" smooth="yes"/>
      <point x="201.7025" y="-8"/>
      <point x="128.0115" y="8"/>
      <point x="94.10249999999999" y="79" type="curve"/>
      <point x="36.5" y="-192" type="line"/>
      <point x="4.5" y="-192" type="line"/>
    </contour>
  </outline>
</glyph>
<glyph name="q" format="2">
  <advance width="578.0052609587173"/>
  <unicode hex="0071"/>
  <guideline x="0" y="260" angle="0" name="ItalicCenter" identifier="fontra-guideline-0"/>
  <outline>
    <contour>
      <point x="332.55326095871715" y="500" type="curve" smooth="yes"/>
      <point x="221.55326095871715" y="500"/>
      <point x="130.76126095871717" y="421"/>
      <point x="97.60326095871716" y="265" type="curve" smooth="yes"/>
      <point x="66.35736095871715" y="118"/>
      <point x="115.52726095871714" y="20"/>
      <point x="226.52726095871714" y="20" type="curve" smooth="yes"/>
      <point x="310.52726095871714" y="20"/>
      <point x="360.17826095871715" y="56"/>
      <point x="417.2702609587172" y="127" type="curve"/>
      <point x="474.87326095871714" y="398" type="line"/>
      <point x="456.2252609587172" y="442"/>
      <point x="413.55326095871715" y="500"/>
    </contour>
    <contour>
      <point x="509.8052609587172" y="520" type="line"/>
      <point x="532.8052609587172" y="520" type="line"/>
      <point x="381.46426095871715" y="-192" type="line"/>
      <point x="349.46426095871715" y="-192" type="line"/>
      <point x="407.06726095871716" y="79" type="line"/>
      <point x="342.97626095871715" y="8"/>
      <point x="262.57526095871714" y="-8"/>
      <point x="217.57526095871714" y="-8" type="curve" smooth="yes"/>
      <point x="96.57526095871717" y="-8"/>
      <point x="30.106360958717154" y="98"/>
      <point x="64.75286095871715" y="261" type="curve" smooth="yes"/>
      <point x="102.16326095871716" y="437"/>
      <point x="201.50626095871712" y="528"/>
      <point x="327.5062609587172" y="528" type="curve" smooth="yes"/>
      <point x="414.5062609587172" y="528"/>
      <point x="453.85326095871716" y="492"/>
      <point x="482.95026095871714" y="436" type="curve"/>
    </contour>
  </outline>
</glyph>
<glyph name="r" format="2">
  <advance width="387"/>
  <unicode hex="0072"/>
  <outline>
    <contour>
      <point x="154.414" y="520" type="line"/>
      <point x="179.414" y="520" type="line"/>
      <point x="167.497" y="431" type="line"/>
      <point x="194.125" y="481"/>
      <point x="248.115" y="528"/>
      <point x="319.115" y="528" type="curve" smooth="yes"/>
      <point x="346.115" y="528"/>
      <point x="363.902" y="527"/>
      <point x="386.265" y="524" type="curve"/>
      <point x="376.738" y="498" type="line"/>
      <point x="313.738" y="498" type="line" smooth="yes"/>
      <point x="240.738" y="498"/>
      <point x="189.984" y="438"/>
      <point x="157.294" y="383" type="curve"/>
      <point x="75.8848" y="0" type="line"/>
      <point x="43.8848" y="0" type="line"/>
    </contour>
  </outline>
</glyph>
<glyph name="s" format="2">
  <advance width="492"/>
  <unicode hex="0073"/>
  <outline>
    <contour>
      <point x="312.965" y="528" type="curve" smooth="yes"/>
      <point x="377.965" y="528"/>
      <point x="415.139" y="510"/>
      <point x="466.999" y="467" type="curve"/>
      <point x="443.323" y="445" type="line"/>
      <point x="400.038" y="486"/>
      <point x="356.014" y="500"/>
      <point x="307.014" y="500" type="curve" smooth="yes"/>
      <point x="219.014" y="500"/>
      <point x="150.299" y="459"/>
      <point x="136.271" y="393" type="curve" smooth="yes"/>
      <point x="124.579" y="338"/>
      <point x="156.841" y="311"/>
      <point x="220.802" y="292" type="curve" smooth="yes"/>
      <point x="296.126" y="270" type="line" smooth="yes"/>
      <point x="358.512" y="253"/>
      <point x="428.647" y="216"/>
      <point x="411.643" y="136" type="curve" smooth="yes"/>
      <point x="389.324" y="31"/>
      <point x="298.035" y="-8"/>
      <point x="195.035" y="-8" type="curve" smooth="yes"/>
      <point x="110.035" y="-8"/>
      <point x="57.1357" y="16"/>
      <point x="14.126" y="63" type="curve"/>
      <point x="37.0156" y="86" type="line"/>
      <point x="73.7256" y="47"/>
      <point x="132.986" y="20"/>
      <point x="198.986" y="20" type="curve" smooth="yes"/>
      <point x="288.986" y="20"/>
      <point x="360.726" y="47"/>
      <point x="379.643" y="136" type="curve" smooth="yes"/>
      <point x="390.483" y="187"/>
      <point x="347.71" y="221"/>
      <point x="281.749" y="240" type="curve" smooth="yes"/>
      <point x="206.425" y="262" type="line" smooth="yes"/>
      <point x="156.613" y="277"/>
      <point x="89.6279" y="310"/>
      <point x="106.058" y="392" type="curve" smooth="yes"/>
      <point x="120.574" y="465"/>
      <point x="197.965" y="528"/>
    </contour>
  </outline>
</glyph>
<glyph name="t" format="2">
  <advance width="372"/>
  <unicode hex="0074"/>
  <outline>
    <contour>
      <point x="206.463" y="671" type="line"/>
      <point x="241.863" y="687" type="line"/>
      <point x="206.366" y="520" type="line"/>
      <point x="345.366" y="520" type="line"/>
      <point x="339.415" y="492" type="line"/>
      <point x="200.415" y="492" type="line"/>
      <point x="115.393" y="92" type="line" smooth="yes"/>
      <point x="105.402" y="45"/>
      <point x="130.876" y="19"/>
      <point x="177.876" y="19" type="curve" smooth="yes"/>
      <point x="186.876" y="19"/>
      <point x="203.088" y="20"/>
      <point x="221.726" y="23" type="curve" smooth="yes"/>
      <point x="245.789" y="28" type="line"/>
      <point x="244.688" y="4" type="line"/>
      <point x="204.562" y="-6"/>
      <point x="185.137" y="-8"/>
      <point x="164.137" y="-8" type="curve" smooth="yes"/>
      <point x="105.137" y="-8"/>
      <point x="69.7891" y="28"/>
      <point x="83.3926" y="92" type="curve" smooth="yes"/>
      <point x="168.415" y="492" type="line"/>
      <point x="52.415" y="492" type="line"/>
      <point x="58.3662" y="520" type="line"/>
      <point x="174.366" y="520" type="line"/>
    </contour>
  </outline>
</glyph>
<glyph name="u" format="2">
  <advance width="539"/>
  <unicode hex="0075"/>
  <anchor x="256" y="687" name="AccentCenter"/>
  <outline>
    <contour>
      <point x="80" y="520" type="line"/>
      <point x="112" y="520" type="line"/>
      <point x="112" y="164" type="line" smooth="yes"/>
      <point x="112" y="70"/>
      <point x="165" y="20"/>
      <point x="236" y="20" type="curve" smooth="yes"/>
      <point x="305" y="20"/>
      <point x="357" y="68"/>
      <point x="407" y="128" type="curve"/>
      <point x="407" y="520" type="line"/>
      <point x="439" y="520" type="line"/>
      <point x="439" y="0" type="line"/>
      <point x="413" y="0" type="line"/>
      <point x="408" y="94" type="line"/>
      <point x="380" y="56"/>
      <point x="322" y="-8"/>
      <point x="235" y="-8" type="curve" smooth="yes"/>
      <point x="134" y="-8"/>
      <point x="80" y="60"/>
      <point x="80" y="162" type="curve" smooth="yes"/>
    </contour>
  </outline>
</glyph>
<glyph name="v" format="2">
  <advance width="425"/>
  <unicode hex="0076"/>
  <guideline x="0" y="260" angle="0" name="ItalicCenter" identifier="fontra-guideline-0"/>
  <outline>
    <contour>
      <point x="76" y="520" type="line"/>
      <point x="110" y="520" type="line"/>
      <point x="151" y="29" type="line"/>
      <point x="431" y="520" type="line"/>
      <point x="472" y="520" type="line"/>
      <point x="166" y="0" type="line"/>
      <point x="125" y="0" type="line"/>
    </contour>
  </outline>
</glyph>
<glyph name="w" format="2">
  <advance width="691"/>
  <unicode hex="0077"/>
  <outline>
    <contour>
      <point x="95.2646" y="520" type="line"/>
      <point x="131.665" y="520" type="line"/>
      <point x="137.6" y="37" type="line"/>
      <point x="379.265" y="520" type="line"/>
      <point x="431.265" y="520" type="line"/>
      <point x="451.6" y="37" type="line"/>
      <point x="671.665" y="520" type="line"/>
      <point x="706.265" y="520" type="line"/>
      <point x="469.735" y="0" type="line"/>
      <point x="417.735" y="0" type="line"/>
      <point x="398.463" y="488" type="line"/>
      <point x="152.335" y="0" type="line"/>
      <point x="106.735" y="0" type="line"/>
    </contour>
  </outline>
</glyph>
<glyph name="x" format="2">
  <advance width="439.9295"/>
  <unicode hex="0078"/>
  <guideline x="0" y="260" angle="0" name="ItalicCenter" identifier="fontra-guideline-0"/>
  <outline>
    <contour>
      <point x="62.4293" y="520" type="line"/>
      <point x="102.22949999999997" y="520" type="line"/>
      <point x="225.9155" y="288" type="line"/>
      <point x="450.0285" y="520" type="line"/>
      <point x="489.6295" y="520" type="line"/>
      <point x="239.1775" y="261" type="line"/>
      <point x="379.1005" y="0" type="line"/>
      <point x="339.4995" y="0" type="line"/>
      <point x="214.6515" y="235" type="line"/>
      <point x="-8.3001" y="0" type="line"/>
      <point x="-48.1" y="0" type="line"/>
      <point x="200.1775" y="261" type="line"/>
    </contour>
  </outline>
</glyph>
<glyph name="y" format="2">
  <advance width="474.97"/>
  <unicode hex="0079"/>
  <guideline x="0" y="260" angle="0" name="ItalicCenter" identifier="fontra-guideline-0"/>
  <anchor x="404.367" y="687" name="AccentCenter"/>
  <outline>
    <contour>
      <point x="59.64" y="520" type="line"/>
      <point x="101.63999999999999" y="520" type="line"/>
      <point x="182.975" y="37" type="line"/>
      <point x="182.637" y="26" type="line"/>
      <point x="186.975" y="37" type="line"/>
      <point x="472.64" y="520" type="line"/>
      <point x="510.64" y="520" type="line"/>
      <point x="75.30000000000001" y="-192" type="line"/>
      <point x="44.3" y="-192" type="line"/>
      <point x="161.324" y="1" type="line"/>
    </contour>
  </outline>
</glyph>
<glyph name="z" format="2">
  <advance width="438.9296"/>
  <unicode hex="007A"/>
  <guideline x="0" y="260" angle="0" name="ItalicCenter" identifier="fontra-guideline-0"/>
  <outline>
    <contour>
      <point x="103.22959999999998" y="520" type="line"/>
      <point x="452.2296" y="520" type="line"/>
      <point x="446.2776" y="492" type="line"/>
      <point x="32.6511" y="28" type="line"/>
      <point x="347.65160000000003" y="28" type="line"/>
      <point x="341.69960000000003" y="0" type="line"/>
      <point x="-11.3" y="0" type="line"/>
      <point x="-5.3489" y="28" type="line"/>
      <point x="407.2776" y="492" type="line"/>
      <point x="97.27759999999998" y="492" type="line"/>
    </contour>
  </outline>
</glyph>
<glyph name="braceleft" format="2">
  <advance width="263"/>
  <unicode hex="007B"/>
  <outline>
    <contour>
      <point x="348.524" y="811" type="curve"/>
      <point x="342.573" y="783" type="line"/>
      <point x="265.573" y="783"/>
      <point x="203.694" y="713"/>
      <point x="188.913" y="644.4" type="curve"/>
      <point x="197.315" y="510.8" type="line"/>
      <point x="174.666" y="440"/>
      <point x="133.652" y="407"/>
      <point x="83.126" y="381" type="curve"/>
      <point x="122.662" y="360"/>
      <point x="145.223" y="325"/>
      <point x="142.476" y="252.8" type="curve"/>
      <point x="72.3896" y="96.2002" type="line"/>
      <point x="57.8809" y="27"/>
      <point x="86.4268" y="-41"/>
      <point x="167.427" y="-41" type="curve"/>
      <point x="161.476" y="-69" type="line"/>
      <point x="61.4756" y="-69"/>
      <point x="24.2666" y="10"/>
      <point x="43.4697" y="99.4004" type="curve"/>
      <point x="108.556" y="256" type="line"/>
      <point x="117.797" y="323"/>
      <point x="65.874" y="361"/>
      <point x="31.1494" y="367" type="curve"/>
      <point x="37.1016" y="395" type="line"/>
      <point x="74.377" y="401"/>
      <point x="146.729" y="445"/>
      <point x="162.12" y="508" type="curve"/>
      <point x="155.543" y="643.6" type="line"/>
      <point x="172.183" y="720"/>
      <point x="249.524" y="811"/>
    </contour>
  </outline>
</glyph>
<glyph name="bar" format="2">
  <advance width="240"/>
  <unicode hex="007C"/>
  <outline>
    <contour>
      <point x="166.256" y="819" type="line"/>
      <point x="217.456" y="819" type="line"/>
      <point x="29.3438" y="-66" type="line"/>
      <point x="-21.8564" y="-66" type="line"/>
    </contour>
  </outline>
</glyph>
<glyph name="braceright" format="2">
  <advance width="263"/>
  <unicode hex="007D"/>
  <outline>
    <contour>
      <point x="101.524" y="811" type="line"/>
      <point x="200.524" y="811"/>
      <point x="239.183" y="720"/>
      <point x="223.343" y="643.6" type="curve"/>
      <point x="159.12" y="508" type="line"/>
      <point x="147.729" y="445"/>
      <point x="201.377" y="401"/>
      <point x="236.102" y="395" type="curve"/>
      <point x="230.149" y="367" type="line"/>
      <point x="192.874" y="361"/>
      <point x="124.797" y="323"/>
      <point x="105.556" y="256" type="curve"/>
      <point x="104.069" y="99.4004" type="line"/>
      <point x="85.2666" y="10"/>
      <point x="14.4756" y="-69"/>
      <point x="-85.5244" y="-69" type="curve"/>
      <point x="-79.5732" y="-41" type="line"/>
      <point x="1.42676" y="-41"/>
      <point x="58.8809" y="27"/>
      <point x="73.7891" y="96.2002" type="curve"/>
      <point x="70.2754" y="252.8" type="line"/>
      <point x="98.2227" y="325"/>
      <point x="135.662" y="360"/>
      <point x="184.126" y="381" type="curve"/>
      <point x="144.652" y="407"/>
      <point x="117.666" y="440"/>
      <point x="125.115" y="510.8" type="curve"/>
      <point x="190.312" y="644.4" type="line"/>
      <point x="204.694" y="713"/>
      <point x="172.573" y="783"/>
      <point x="95.5732" y="783" type="curve"/>
    </contour>
  </outline>
</glyph>
<glyph name="asciitilde" format="2">
  <advance width="634"/>
  <unicode hex="007E"/>
  <outline>
    <contour>
      <point x="554" y="344" type="line"/>
      <point x="526" y="286"/>
      <point x="490" y="246"/>
      <point x="420" y="246" type="curve" smooth="yes"/>
      <point x="334" y="246"/>
      <point x="296" y="340"/>
      <point x="214" y="340" type="curve" smooth="yes"/>
      <point x="156" y="340"/>
      <point x="123" y="293"/>
      <point x="102" y="256" type="curve"/>
      <point x="80" y="272" type="line"/>
      <point x="104" y="312"/>
      <point x="141" y="368"/>
      <point x="216" y="368" type="curve" smooth="yes"/>
      <point x="306" y="368"/>
      <point x="345" y="274"/>
      <point x="422" y="274" type="curve" smooth="yes"/>
      <point x="466" y="274"/>
      <point x="502" y="293"/>
      <point x="530" y="359" type="curve"/>
    </contour>
  </outline>
</glyph>
<glyph name="cent" format="2">
  <advance width="461"/>
  <unicode hex="00A2"/>
  <outline>
    <contour>
      <point x="217.8" y="618" type="line"/>
      <point x="275.4" y="618" type="line"/>
      <point x="275.4" y="-94" type="line"/>
      <point x="217.8" y="-94" type="line"/>
    </contour>
    <component base="c"/>
  </outline>
</glyph>
<glyph name="sterling" format="2">
  <advance width="580"/>
  <unicode hex="00A3"/>
  <outline>
    <contour>
      <point x="345" y="716" type="curve" smooth="yes"/>
      <point x="435" y="716"/>
      <point x="487" y="681"/>
      <point x="542" y="640" type="curve"/>
      <point x="523" y="614" type="line"/>
      <point x="468" y="659"/>
      <point x="421" y="688"/>
      <point x="342" y="688" type="curve" smooth="yes"/>
      <point x="238" y="688"/>
      <point x="163" y="621"/>
      <point x="163" y="538" type="curve" smooth="yes"/>
      <point x="163" y="471"/>
      <point x="189" y="425"/>
      <point x="218" y="358" type="curve"/>
      <point x="396" y="358" type="line"/>
      <point x="396" y="330" type="line"/>
      <point x="228" y="330" type="line"/>
      <point x="237" y="304"/>
      <point x="242" y="274"/>
      <point x="242" y="243" type="curve" smooth="yes"/>
      <point x="242" y="117"/>
      <point x="168" y="56"/>
      <point x="95" y="28" type="curve"/>
      <point x="523" y="28" type="line"/>
      <point x="523" y="0" type="line"/>
      <point x="64" y="0" type="line"/>
      <point x="63.8" y="42.4" type="line"/>
      <point x="162" y="78"/>
      <point x="210" y="132"/>
      <point x="210" y="244" type="curve" smooth="yes"/>
      <point x="210" y="274"/>
      <point x="206" y="308"/>
      <point x="197" y="330" type="curve"/>
      <point x="35" y="330" type="line"/>
      <point x="35" y="358" type="line"/>
      <point x="187" y="358" type="line"/>
      <point x="161" y="418"/>
      <point x="131" y="472"/>
      <point x="131" y="536" type="curve" smooth="yes"/>
      <point x="131" y="624"/>
      <point x="203" y="716"/>
    </contour>
  </outline>
</glyph>
<glyph name="copyright" format="2">
  <advance width="853"/>
  <unicode hex="00A9"/>
  <outline>
    <contour>
      <point x="426" y="722" type="curve" smooth="yes"/>
      <point x="223" y="722"/>
      <point x="59" y="558"/>
      <point x="59" y="355" type="curve" smooth="yes"/>
      <point x="59" y="151"/>
      <point x="223" y="-14"/>
      <point x="426" y="-14" type="curve" smooth="yes"/>
      <point x="631" y="-14"/>
      <point x="794" y="151"/>
      <point x="794" y="355" type="curve" smooth="yes"/>
      <point x="794" y="558"/>
      <point x="631" y="722"/>
    </contour>
    <contour>
      <point x="426" y="694" type="curve" smooth="yes"/>
      <point x="612" y="694"/>
      <point x="762" y="540"/>
      <point x="762" y="355" type="curve" smooth="yes"/>
      <point x="762" y="170"/>
      <point x="612" y="14"/>
      <point x="426" y="14" type="curve" smooth="yes"/>
      <point x="241" y="14"/>
      <point x="91" y="170"/>
      <point x="91" y="355" type="curve" smooth="yes"/>
      <point x="91" y="540"/>
      <point x="241" y="694"/>
    </contour>
    <contour>
      <point x="423" y="593" type="curve" smooth="yes"/>
      <point x="474" y="593"/>
      <point x="517" y="583"/>
      <point x="576" y="539" type="curve"/>
      <point x="561" y="515" type="line"/>
      <point x="514" y="549"/>
      <point x="483" y="565"/>
      <point x="423" y="565" type="curve" smooth="yes"/>
      <point x="323" y="565"/>
      <point x="254" y="498"/>
      <point x="254" y="354" type="curve" smooth="yes"/>
      <point x="254" y="212"/>
      <point x="323" y="147"/>
      <point x="423" y="147" type="curve" smooth="yes"/>
      <point x="491" y="147"/>
      <point x="527" y="162"/>
      <point x="568" y="193" type="curve"/>
      <point x="579" y="166" type="line"/>
      <point x="537" y="134"/>
      <point x="480" y="119"/>
      <point x="423" y="119" type="curve" smooth="yes"/>
      <point x="300" y="119"/>
      <point x="222" y="203"/>
      <point x="222" y="352" type="curve" smooth="yes"/>
      <point x="222" y="510"/>
      <point x="300" y="593"/>
    </contour>
  </outline>
</glyph>
<glyph name="AE" format="2">
  <advance width="887"/>
  <unicode hex="00C6"/>
  <outline>
    <contour>
      <point x="380" y="708" type="line"/>
      <point x="816" y="708" type="line"/>
      <point x="816" y="680" type="line"/>
      <point x="422" y="680" type="line"/>
      <point x="422" y="406" type="line"/>
      <point x="738" y="406" type="line"/>
      <point x="738" y="378" type="line"/>
      <point x="422" y="378" type="line"/>
      <point x="422" y="28" type="line"/>
      <point x="816" y="28" type="line"/>
      <point x="816" y="0" type="line"/>
      <point x="390" y="0" type="line"/>
      <point x="390" y="195" type="line"/>
      <point x="175" y="196" type="line"/>
      <point x="81" y="0" type="line"/>
      <point x="52" y="0" type="line"/>
    </contour>
    <contour>
      <point x="390" y="664" type="line"/>
      <point x="191" y="223" type="line"/>
      <point x="390" y="223" type="line"/>
    </contour>
  </outline>
</glyph>
<glyph name="ae" format="2">
  <advance width="830"/>
  <unicode hex="00E6"/>
  <outline>
    <contour>
      <point x="256" y="528" type="curve" smooth="yes"/>
      <point x="346" y="528"/>
      <point x="401" y="464"/>
      <point x="406" y="384" type="curve"/>
      <point x="425" y="458"/>
      <point x="482" y="528"/>
      <point x="588" y="528" type="curve" smooth="yes"/>
      <point x="699" y="528"/>
      <point x="778" y="450"/>
      <point x="778" y="305" type="curve" smooth="yes"/>
      <point x="778" y="272"/>
      <point x="776" y="259"/>
      <point x="771" y="254" type="curve"/>
      <point x="415" y="254" type="line"/>
      <point x="415" y="87"/>
      <point x="481" y="20"/>
      <point x="601" y="20" type="curve" smooth="yes"/>
      <point x="667" y="20"/>
      <point x="721" y="47"/>
      <point x="773" y="93" type="curve"/>
      <point x="789" y="71" type="line"/>
      <point x="738" y="22"/>
      <point x="665" y="-8"/>
      <point x="600" y="-8" type="curve" smooth="yes"/>
      <point x="511" y="-8"/>
      <point x="436" y="30"/>
      <point x="409" y="109" type="curve"/>
      <point x="375" y="47"/>
      <point x="308" y="-8"/>
      <point x="210" y="-8" type="curve" smooth="yes"/>
      <point x="106" y="-8"/>
      <point x="53" y="45"/>
      <point x="53" y="145" type="curve" smooth="yes"/>
      <point x="53" y="245"/>
      <point x="134" y="298"/>
      <point x="253" y="298" type="curve"/>
      <point x="385" y="298" type="line"/>
      <point x="385" y="352" type="line" smooth="yes"/>
      <point x="385" y="443"/>
      <point x="331" y="500"/>
      <point x="256" y="500" type="curve" smooth="yes"/>
      <point x="197" y="500"/>
      <point x="155" y="476"/>
      <point x="100" y="434" type="curve"/>
      <point x="81" y="457" type="line"/>
      <point x="138" y="500"/>
      <point x="193" y="528"/>
    </contour>
    <contour>
      <point x="385" y="270" type="line"/>
      <point x="257" y="270" type="line" smooth="yes"/>
      <point x="147" y="270"/>
      <point x="85" y="228"/>
      <point x="85" y="140" type="curve" smooth="yes"/>
      <point x="85" y="63"/>
      <point x="121" y="20"/>
      <point x="216" y="20" type="curve" smooth="yes"/>
      <point x="292" y="20"/>
      <point x="352" y="66"/>
      <point x="385" y="117" type="curve"/>
    </contour>
    <contour>
      <point x="586" y="500" type="curve" smooth="yes"/>
      <point x="490" y="500"/>
      <point x="415" y="415"/>
      <point x="415" y="282" type="curve"/>
      <point x="746" y="282" type="line"/>
      <point x="746" y="320" type="line" smooth="yes"/>
      <point x="746" y="415"/>
      <point x="692" y="500"/>
    </contour>
  </outline>
</glyph>
<glyph name="tildecomb" format="2">
  <advance width="0"/>
  <unicode hex="0303"/>
  <anchor x="0" y="851.6" name="_AccentCenter"/>
  <outline>
    <contour>
      <point x="-78" y="902" type="curve" smooth="yes"/>
      <point x="-11" y="902"/>
      <point x="13" y="830"/>
      <point x="63" y="830" type="curve" smooth="yes"/>
      <point x="100" y="830"/>
      <point x="111" y="855"/>
      <point x="112" y="898" type="curve"/>
      <point x="144" y="898" type="line"/>
      <point x="144" y="833"/>
      <point x="113" y="802"/>
      <point x="63" y="802" type="curve" smooth="yes"/>
      <point x="-11" y="802"/>
      <point x="-29" y="874"/>
      <point x="-78" y="874" type="curve" smooth="yes"/>
      <point x="-122" y="874"/>
      <point x="-134" y="845"/>
      <point x="-134" y="806" type="curve"/>
      <point x="-166" y="806" type="line"/>
      <point x="-166" y="860"/>
      <point x="-145" y="902"/>
    </contour>
  </outline>
</glyph>
